<svg xmlns="http://www.w3.org/2000/svg" width="21" height="9" viewBox="0 0 21 9" fill="none">
<path d="M18.0204 4.18359L18.3703 3.82648L19.245 4.68359L18.0204 4.68359L18.0204 4.18359ZM15.1485 1.36929L14.7985 1.72641L14.7985 1.72641L15.1485 1.36929ZM15.1427 0.803633L14.7856 0.453682V0.453682L15.1427 0.803633ZM15.7084 0.797899L16.0583 0.44078L16.0583 0.440781L15.7084 0.797899ZM19.2795 4.29734L19.6294 3.94022L20.4593 4.7534L19.2982 4.79699L19.2795 4.29734ZM15.7084 8.36929L16.0583 8.72641L16.0583 8.72641L15.7084 8.36929ZM19.2795 4.86985L19.2345 4.37188L20.6308 4.24574L19.6294 5.22697L19.2795 4.86985ZM15.1427 8.36356L15.4998 8.0136L15.4998 8.0136L15.1427 8.36356ZM15.1485 7.7979L14.7985 7.44078L14.7985 7.44078L15.1485 7.7979ZM19.2801 4.86929L19.63 5.22639L18.9117 4.53114L19.2801 4.86929ZM19.3088 4.83803L19.6944 5.15629L19.6944 5.1563L19.3088 4.83803ZM19.3992 4.61022L19.8982 4.64298L19.8981 4.643L19.3992 4.61022ZM19.3996 4.56301L19.8989 4.5377L19.8989 4.53772L19.3996 4.56301ZM19.2829 4.30075L18.9097 4.63341L19.6365 3.94721L19.2829 4.30075ZM1.1001 4.58359C1.1001 4.52837 1.05533 4.48359 1.0001 4.48359L1.0001 5.48359C0.503041 5.48359 0.100097 5.08065 0.100097 4.58359L1.1001 4.58359ZM1.0001 4.68359C1.05533 4.68359 1.1001 4.63882 1.1001 4.58359L0.100097 4.58359C0.100098 4.08654 0.503041 3.68359 1.0001 3.68359L1.0001 4.68359ZM18.0204 4.68359L1.0001 4.68359L1.0001 3.68359L18.0204 3.68359L18.0204 4.68359ZM15.4984 1.01217L18.3703 3.82648L17.6704 4.54071L14.7985 1.72641L15.4984 1.01217ZM15.4998 1.15358C15.5385 1.11414 15.5378 1.05083 15.4984 1.01217L14.7985 1.72641C14.4435 1.37852 14.4377 0.808698 14.7856 0.453682L15.4998 1.15358ZM15.3584 1.15502C15.3979 1.19367 15.4612 1.19303 15.4998 1.15358L14.7856 0.453682C15.1335 0.0986651 15.7033 0.0928896 16.0583 0.44078L15.3584 1.15502ZM18.9295 4.65446L15.3584 1.15502L16.0583 0.440781L19.6294 3.94022L18.9295 4.65446ZM19.2982 4.79699L1.01886 5.48324L0.981339 4.48395L19.2607 3.79769L19.2982 4.79699ZM1.0001 4.48359L18.0204 4.48359L18.0204 5.48359L1.0001 5.48359L1.0001 4.48359ZM1.0001 4.48359L18.0204 4.48359L18.0204 5.48359L1.0001 5.48359L1.0001 4.48359ZM15.3584 8.01217L18.9295 4.51273L19.6294 5.22697L16.0583 8.72641L15.3584 8.01217ZM15.4998 8.0136C15.4612 7.97416 15.3979 7.97352 15.3584 8.01217L16.0583 8.72641C15.7033 9.0743 15.1335 9.06852 14.7856 8.71351L15.4998 8.0136ZM15.4984 8.15502C15.5378 8.11636 15.5385 8.05305 15.4998 8.0136L14.7856 8.71351C14.4377 8.35849 14.4435 7.78867 14.7985 7.44078L15.4984 8.15502ZM18.3703 5.34071L15.4984 8.15502L14.7985 7.44078L17.6704 4.62648L18.3703 5.34071ZM17.9754 4.48562L19.2345 4.37188L19.3245 5.36782L18.0654 5.48157L17.9754 4.48562ZM18.9301 4.51219C18.9276 4.5146 18.9253 4.51713 18.9231 4.51976L19.6944 5.1563C19.6742 5.18078 19.6527 5.20418 19.63 5.22639L18.9301 4.51219ZM18.9117 4.53114L18.9404 4.49988L19.6771 5.17618L19.6484 5.20744L18.9117 4.53114ZM18.9231 4.51978C18.9104 4.53518 18.9017 4.55549 18.9003 4.57743L19.8981 4.643C19.8854 4.83749 19.8107 5.0154 19.6944 5.15629L18.9231 4.51978ZM18.8441 4.65349L18.9345 4.42568L19.8639 4.79476L19.7735 5.02257L18.8441 4.65349ZM18.9003 4.57745C18.9002 4.57954 18.9001 4.58159 18.9001 4.58359L19.9001 4.58359C19.9001 4.60349 19.8994 4.62329 19.8982 4.64298L18.9003 4.57745ZM18.8995 4.59386L18.9004 4.56723L19.8998 4.59996L19.899 4.62658L18.8995 4.59386ZM18.9001 4.58359C18.9001 4.58517 18.9001 4.58673 18.9002 4.5883L19.8989 4.53772C19.8997 4.55292 19.9001 4.56822 19.9001 4.58359L18.9001 4.58359ZM18.9003 4.59624L18.8997 4.57566L19.8994 4.55037L19.8999 4.57095L18.9003 4.59624ZM18.9002 4.58832C18.9013 4.60995 18.9095 4.6303 18.9219 4.64592L19.7055 4.02462C19.8181 4.16664 19.8891 4.34439 19.8989 4.5377L18.9002 4.58832ZM18.9317 4.73942L18.8459 4.51168L19.7815 4.15886L19.8674 4.3866L18.9317 4.73942ZM18.9219 4.64591C18.9243 4.64889 18.9268 4.65168 18.9294 4.65429L19.6365 3.94721C19.6609 3.97162 19.684 3.99746 19.7055 4.02463L18.9219 4.64591ZM18.9404 4.66793L18.9097 4.63341L19.6562 3.96809L19.687 4.00261L18.9404 4.66793Z" fill="black"/>
</svg>