<svg xmlns="http://www.w3.org/2000/svg" width="21" height="9" viewBox="0 0 21 9" fill="none">
  <path d="M2.9796 4.9834L2.62965 5.34052L1.75498 4.4834L2.9796 4.4834L2.9796 4.9834ZM5.85155 7.7977L6.2015 7.44058L6.2015 7.44058L5.85155 7.7977ZM5.85728 8.36336L6.2144 8.71331L6.2144 8.71331L5.85728 8.36336ZM5.29163 8.36909L4.94167 8.72621L4.94167 8.72621L5.29163 8.36909ZM1.72051 4.86965L1.37056 5.22677L0.540728 4.41359L1.70175 4.37L1.72051 4.86965ZM5.29163 0.797703L4.94167 0.440584L4.94167 0.440584L5.29163 0.797703ZM1.72051 4.29715L1.7655 4.79512L0.369234 4.92126L1.37056 3.94003L1.72051 4.29715ZM5.85728 0.803437L5.50016 1.15339L5.50016 1.15339L5.85728 0.803437ZM5.85155 1.36909L6.2015 1.72621L6.2015 1.72621L5.85155 1.36909ZM1.71994 4.2977L1.36997 3.9406L2.08826 4.63585L1.71994 4.2977ZM1.69124 4.32896L1.30561 4.01071L1.30562 4.01069L1.69124 4.32896ZM1.60077 4.55677L1.10185 4.52401L1.10185 4.52399L1.60077 4.55677ZM1.60042 4.60398L1.10106 4.62929L1.10106 4.62927L1.60042 4.60398ZM1.71706 4.86624L2.09034 4.53358L1.36349 5.21978L1.71706 4.86624ZM19.8999 4.5834C19.8999 4.63863 19.9447 4.6834 19.9999 4.6834L19.9999 3.6834C20.497 3.6834 20.8999 4.08634 20.8999 4.5834L19.8999 4.5834ZM19.9999 4.4834C19.9447 4.4834 19.8999 4.52817 19.8999 4.5834L20.8999 4.5834C20.8999 5.08045 20.497 5.4834 19.9999 5.4834L19.9999 4.4834ZM2.9796 4.4834L19.9999 4.4834L19.9999 5.4834L2.9796 5.4834L2.9796 4.4834ZM5.5016 8.15482L2.62965 5.34052L3.32955 4.62628L6.2015 7.44058L5.5016 8.15482ZM5.50016 8.01341C5.46151 8.05285 5.46215 8.11617 5.5016 8.15482L6.2015 7.44058C6.55651 7.78848 6.56229 8.35829 6.2144 8.71331L5.50016 8.01341ZM5.64158 8.01197C5.60213 7.97332 5.53882 7.97396 5.50016 8.01341L6.2144 8.71331C5.86651 9.06833 5.29669 9.0741 4.94167 8.72621L5.64158 8.01197ZM2.07046 4.51253L5.64158 8.01197L4.94167 8.72621L1.37056 5.22677L2.07046 4.51253ZM1.70175 4.37L19.9811 3.68375L20.0187 4.68305L1.73927 5.3693L1.70175 4.37ZM19.9999 4.6834L2.9796 4.6834L2.9796 3.6834L19.9999 3.6834L19.9999 4.6834ZM19.9999 4.6834L2.9796 4.6834L2.9796 3.6834L19.9999 3.6834L19.9999 4.6834ZM5.64158 1.15482L2.07046 4.65426L1.37056 3.94003L4.94167 0.440584L5.64158 1.15482ZM5.50016 1.15339C5.53882 1.19284 5.60213 1.19348 5.64158 1.15482L4.94167 0.440584C5.29669 0.0926941 5.86651 0.0984677 6.2144 0.453486L5.50016 1.15339ZM5.5016 1.01198C5.46215 1.05063 5.46151 1.11394 5.50016 1.15339L6.2144 0.453485C6.56229 0.808502 6.55651 1.37832 6.2015 1.72621L5.5016 1.01198ZM2.62965 3.82628L5.5016 1.01197L6.2015 1.72621L3.32955 4.54052L2.62965 3.82628ZM3.02459 4.68137L1.7655 4.79512L1.67553 3.79917L2.93462 3.68543L3.02459 4.68137ZM2.06991 4.6548C2.07237 4.65239 2.07469 4.64987 2.07687 4.64723L1.30562 4.01069C1.32582 3.98622 1.3473 3.96282 1.36997 3.9406L2.06991 4.6548ZM2.08826 4.63585L2.05956 4.66711L1.32293 3.99081L1.35163 3.95955L2.08826 4.63585ZM2.07688 4.64722C2.08959 4.63181 2.09826 4.6115 2.0997 4.58956L1.10185 4.52399C1.11463 4.32951 1.18934 4.15159 1.30561 4.01071L2.07688 4.64722ZM2.15594 4.5135L2.06547 4.74132L1.13608 4.37223L1.22655 4.14442L2.15594 4.5135ZM2.0997 4.58954C2.09984 4.58745 2.0999 4.5854 2.0999 4.5834L1.0999 4.5834C1.0999 4.5635 1.10056 4.5437 1.10185 4.52401L2.0997 4.58954ZM2.10051 4.57314L2.09964 4.59976L1.10017 4.56704L1.10104 4.54041L2.10051 4.57314ZM2.0999 4.5834C2.0999 4.58183 2.09986 4.58026 2.09978 4.5787L1.10106 4.62927C1.10029 4.61407 1.0999 4.59878 1.0999 4.5834L2.0999 4.5834ZM2.09974 4.57075L2.10026 4.59134L1.10058 4.61663L1.10006 4.59604L2.09974 4.57075ZM2.09978 4.57867C2.09869 4.55704 2.09047 4.53669 2.07808 4.52107L1.29451 5.14237C1.1819 5.00035 1.11086 4.82261 1.10106 4.62929L2.09978 4.57867ZM2.06827 4.42757L2.15414 4.65531L1.21845 5.00813L1.13258 4.78039L2.06827 4.42757ZM2.07809 4.52108C2.07573 4.5181 2.07324 4.51531 2.07063 4.5127L1.36349 5.21978C1.33909 5.19537 1.31604 5.16953 1.29451 5.14236L2.07809 4.52108ZM2.05958 4.49906L2.09034 4.53358L1.34378 5.1989L1.31302 5.16438L2.05958 4.49906Z" fill="black"/>
</svg>