<?xml version="1.0" encoding="UTF-8"?>
<svg width="20px" height="20px" viewBox="0 0 20 20" version="1.1" xmlns="http://www.w3.org/2000/svg" xmlns:xlink="http://www.w3.org/1999/xlink">
    <!-- Generator: Sketch 60.1 (88133) - https://sketch.com -->
    <title>Group</title>
    <desc>Created with Sketch.</desc>
    <g id="UI" stroke="none" stroke-width="1" fill="none" fill-rule="evenodd">
        <g id="🖥-/-account-/-wishlist-with-image" transform="translate(-535.000000, -1184.000000)" stroke="#000000">
            <g id="Group-5" transform="translate(228.000000, 1174.000000)">
                <g id="Group" transform="translate(308.000000, 11.000000)">
                    <path d="M10.1085,13.5517 C10.1059,13.5543 10.1008,13.5595 10.0982,13.5621 L6.62153,17.0361 C5.10826,18.5494 2.64823,18.5494 1.13495,17.0361 C-0.378318,15.5229 -0.378318,13.0628 1.13495,11.5496 L4.79267,7.89184 C6.2361,6.44841 8.53835,6.37339 10.062,7.6849" id="Path"></path>
                    <path d="M7.89062,4.79026 C7.89321,4.78767 7.89839,4.7825 7.90097,4.77991 L11.3776,1.30585 C12.8909,-0.207419 15.3509,-0.207419 16.8642,1.30585 C18.3775,2.81912 18.3775,5.27916 16.8642,6.79243 L13.2065,10.4502 C11.763,11.8936 9.4608,11.9686 7.93719,10.6571" id="Path"></path>
                </g>
            </g>
        </g>
    </g>
</svg>