<svg data-name="Layer 1" xmlns="http://www.w3.org/2000/svg" viewBox="0 0 24 24"><path d="M24 12a11.87 11.87 0 00-3.09-8l2.34-2.34-.91-.91L20 3.09a11.93 11.93 0 00-16 0L1.66.75l-.91.91L3.09 4a11.91 11.91 0 000 16L.75 22.34l.91.91L4 20.91a11.9 11.9 0 0016 0l2.34 2.34.91-.91L20.91 20A11.87 11.87 0 0024 12zm-1.29 0A10.73 10.73 0 0120 19.1L12.91 12 20 4.91A10.68 10.68 0 0122.71 12zM12 1.29A10.69 10.69 0 0119.1 4L12 11.09 4.9 4A10.69 10.69 0 0112 1.29zM1.29 12A10.68 10.68 0 014 4.91L11.09 12 4 19.1A10.69 10.69 0 011.29 12zM12 22.71A10.73 10.73 0 014.9 20l7.1-7.1 7.1 7.1a10.69 10.69 0 01-7.1 2.71z"/></svg>