<svg viewBox="0 0 24 24">
  <path fill="currentColor" d="M7.05.07a8.76 8.76 0 00-2.91.56A6.07 6.07 0 00.63 4.14a8.76 8.76 0 00-.56 2.91C0 8.33 0 8.74 0 12s0 3.67.07 5a8.76 8.76 0 00.56 2.91 6.07 6.07 0 003.51 3.51 8.76 8.76 0 002.91.56C8.33 24 8.74 24 12 24s3.67 0 4.95-.07a8.71 8.71 0 002.91-.56 6.07 6.07 0 003.51-3.51 8.76 8.76 0 00.56-2.86c.07-1.33.07-1.74.07-5s0-3.67-.07-4.95a8.76 8.76 0 00-.56-2.91A6.07 6.07 0 0019.86.63 8.76 8.76 0 0017 .07C15.67 0 15.26 0 12 0S8.33 0 7.05.07m.1 21.7a7 7 0 01-2.23-.41 3.75 3.75 0 01-1.38-.9 3.61 3.61 0 01-.89-1.38 6.61 6.61 0 01-.42-2.23c-.06-1.27-.07-1.65-.07-4.85s0-3.58.07-4.85a6.67 6.67 0 01.42-2.23 3.61 3.61 0 01.89-1.38 3.75 3.75 0 011.38-.9 6.74 6.74 0 012.23-.41c1.27-.06 1.65-.07 4.85-.07s3.58 0 4.85.07a7 7 0 012.23.41 3.75 3.75 0 011.38.9 3.75 3.75 0 01.9 1.38 6.68 6.68 0 01.41 2.23c.06 1.27.07 1.65.07 4.85s0 3.58-.07 4.85a6.68 6.68 0 01-.41 2.23 4 4 0 01-2.28 2.28 7 7 0 01-2.23.41c-1.27.06-1.65.07-4.85.07s-3.58 0-4.85-.07M17 5.59a1.44 1.44 0 101.44-1.44A1.44 1.44 0 0017 5.59M5.84 12A6.16 6.16 0 1012 5.84 6.16 6.16 0 005.84 12M8 12a4 4 0 114 4 4 4 0 01-4-4"/>
</svg>