<?xml version="1.0" encoding="UTF-8"?>
<svg width="32px" height="47px" viewBox="0 0 32 47" version="1.1" xmlns="http://www.w3.org/2000/svg" xmlns:xlink="http://www.w3.org/1999/xlink">
    <!-- Generator: Sketch 60.1 (88133) - https://sketch.com -->
    <title>Group Copy</title>
    <desc>Created with Sketch.</desc>
    <g id="UI" stroke="none" stroke-width="1" fill="none" fill-rule="evenodd">
        <g id="🖥-/-store-locator" transform="translate(-918.000000, -840.000000)" fill="#000000">
            <g id="Group-Copy" transform="translate(918.000000, 840.000000)">
                <path d="M16,1.27897692e-13 C24.8362667,1.27897692e-13 32,7.01443247 32,15.6665406 C32,22.7833278 21.1754667,40.6285621 17.3333333,46.2998498 C16.8448,47.0205107 15.8528,47.2168646 15.1146667,46.7385129 C14.9376,46.623625 14.784,46.4732262 14.6666667,46.2998498 C10.8245333,40.6285621 -2.53308485e-12,22.7833278 -2.53308485e-12,15.6665406 C-2.53308485e-12,7.01443247 7.16373333,1.27897692e-13 16,1.27897692e-13 Z M16,7.83327032 C11.5818667,7.83327032 8,11.3404866 8,15.6665406 C8,19.9925947 11.5818667,23.499811 16,23.499811 C20.4181333,23.499811 24,19.9925947 24,15.6665406 C24,11.3404866 20.4181333,7.83327032 16,7.83327032 Z" id="Combined-Shape"></path>
            </g>
        </g>
    </g>
</svg>