<svg width="40" height="40" viewBox="0 0 40 40">
  <g fill="none" fill-rule="evenodd" stroke="currentColor" stroke-linejoin="round">
    <path d="M19.52173913 13.26086957c1.80086957 0 3.26086957 1.46 3.26086957 3.26086956 0 1.80086957-1.46 3.26086957-3.26086957 3.26086957-1.80086956 0-3.26086956-1.46-3.26086956-3.26086957 0-1.80086956 1.46-3.26086956 3.26086956-3.26086956z"/>
    <path d="M19.52173913 10c3.60173917 0 6.52173917 2.92 6.52173917 6.52173913 0 2.9626087-4.41217395 10.39130437-5.97826091 12.75217387-.19913043.3-.60347826.3817392-.90434782.1826087-.07217392-.047826-.13478261-.1104347-.1826087-.1826087C17.41217391 26.9130435 13 19.48434783 13 16.52173913 13 12.92 15.92 10 19.52173913 10z"/>
  </g>
</svg>