<svg viewBox="0 0 40 40">
  <g fill="none" fill-rule="evenodd" stroke="currentColor">
    <path d="M22.2339 11.1248c.207 0 .375.168.375.375M21.8589 11.4998c0-.207.168-.375.375-.375M22.2339 11.8748c-.207 0-.375-.168-.375-.375M22.6089 11.4998c0 .207-.168.375-.375.375"/>
    <path d="M21.6421 18.637c-1.22-1.562-3.908-5.218-3.908-7.138.001-2.485 2.015-4.499 4.5-4.499 2.484 0 4.5 2.015 4.5 4.5 0 1.92-2.688 5.576-3.908 7.137l-.586.7-.598-.7zM8 25.2215l2.937 1.487M8.0937 21.2342l2.813 1.506M9.2793 17.9178l1.688 1.041"/>
    <path d="M24.4009 16.4915l5.74 2.933v9.236l-7.924 4.048-7.922-4.048v-9.236l5.741-2.933"/>
    <path d="M14.2944 19.4246l7.923 4.048 7.924-4.048M22.2173 23.4725v9.236"/>
  </g>
</svg>