<svg viewBox="0 0 24 24">
  <circle stroke="currentColor" cx="14.71" cy="4.48" r=".78"/>
  <path d="M1.75007834 17.18419673l.4066308-.80290186L4.788443 17.7141403l-.4066308.80290185zM1.7955 13.5835l.423-.792 2.5168 1.3442-.423.792zM2.85988616 10.61653259l.47238979-.76605998 1.5150964.93428203-.4723898.76605998zM17.31 8.79c1-1.51 1.89-3.18 1.89-4.31a4.49 4.49 0 00-9 0c0 1.13.89 2.79 1.88 4.3l-5 2.53v8.83L14.7 24l7.55-3.86v-8.83zM14.71.9a3.59 3.59 0 013.59 3.58c0 1.1-1.27 3.39-3.4 6.11l-.18.22-.19-.21c-2.13-2.73-3.4-5-3.4-6.12A3.58 3.58 0 0114.71.9zm-.88 10.26l.89 1 .88-1c.35-.46.78-1 1.2-1.63l4 2.06-6.1 3.12-6.12-3.12 4-2.07c.47.62.89 1.18 1.25 1.64zM8 12.32l6.21 3.17v7.27L8 19.59zm7.11 10.44v-7.27l6.2-3.17v7.27z" stroke="currentColor" />
</svg>