<?xml version="1.0" encoding="UTF-8"?>
<svg width="40px" height="40px" viewBox="0 0 40 40" version="1.1" xmlns="http://www.w3.org/2000/svg" xmlns:xlink="http://www.w3.org/1999/xlink">
    <!-- Generator: Sketch 60.1 (88133) - https://sketch.com -->
    <title>social / twitter</title>
    <desc>Created with Sketch.</desc>
    <g id="social-/-twitter" stroke="none" stroke-width="1" fill="none" fill-rule="evenodd">
        <path d="M28.66398,14.7996 C27.97588,15.1042 27.24018,15.3098 26.46498,15.4047 C27.25598,14.9301 27.86508,14.1787 28.14988,13.2848 C27.41028,13.7238 26.59158,14.0442 25.71748,14.2143 C25.01748,13.4667 24.02078,13 22.92128,13 C20.80528,13 19.09268,14.7166 19.09268,16.8325 C19.09268,17.1331 19.12438,17.4258 19.19158,17.7066 C16.00778,17.5484 13.18388,16.0217 11.29727,13.7001 C10.969,14.2657 10.77915,14.9262 10.77915,15.6262 C10.77915,16.9551 11.45938,18.1298 12.48778,18.818 C11.85498,18.8021 11.26167,18.6281 10.74751,18.3394 L10.74751,18.3869 C10.74751,20.2458 12.06848,21.7922 13.82058,22.1442 C13.50028,22.2312 13.16008,22.2787 12.81208,22.2787 C12.56688,22.2787 12.32558,22.2549 12.09228,22.2075 C12.57868,23.7302 13.99468,24.8376 15.67158,24.8692 C14.36248,25.8976 12.70928,26.5106 10.91363,26.5106 C10.60513,26.5106 10.30059,26.4908 10,26.4552 C11.68878,27.5547 13.70198,28.1876 15.86138,28.1876 C22.91338,28.1876 26.76558,22.3459 26.76558,17.2794 C26.76558,17.1133 26.76158,16.9472 26.75368,16.7851 C27.50118,16.2432 28.14988,15.5709 28.66398,14.7996 Z" id="Path" fill="#000000" fill-rule="nonzero"></path>
    </g>
</svg>