<svg data-name="Layer 1" xmlns="http://www.w3.org/2000/svg" viewBox="0 0 24 24"><path d="M22 18.32l2-13.9-1.11-.17-.71 4.81a5.54 5.54 0 01-3-.93 8.11 8.11 0 00-1.72-.81l4.39-4.39-.79-.79-4.91 4.92h-.76a6.65 6.65 0 00-3.8 1.1 6.17 6.17 0 01-1.87.8L2.93 2.14l-.79.79 6.14 6.14a5.58 5.58 0 01-3.15-1A6.71 6.71 0 001.52 7l-.41-2.75L0 4.42l2.05 13.9a.56.56 0 00.55.47h1.82l-2.28 2.28.79.79L6 18.79h12l3.07 3.07.79-.79-2.28-2.28h1.82a.56.56 0 00.6-.47zm-9.84-9.23a5.54 5.54 0 012.89-.93L12 11.21l-1.37-1.37a8.72 8.72 0 001.53-.75zm-9.07 8.59L1.68 8.16a5.61 5.61 0 012.89.93 6.59 6.59 0 003.79 1.1 9.55 9.55 0 001-.06L11.21 12l-5.68 5.68zm4 0L12 12.79l4.89 4.89zm11.36 0L12.79 12l3.76-3.76a6.08 6.08 0 012.08.85A6.56 6.56 0 0022 10.17l-1.11 7.51z"/></svg>