<?xml version="1.0" encoding="UTF-8"?>
<svg width="80px" height="40px" viewBox="0 0 80 40" version="1.1" xmlns="http://www.w3.org/2000/svg" xmlns:xlink="http://www.w3.org/1999/xlink">
    <!-- Generator: Sketch 60.1 (88133) - https://sketch.com -->
    <title>payment / afterpay</title>
    <desc>Created with Sketch.</desc>
    <g id="payment-/-afterpay" stroke="none" stroke-width="1" fill="none" fill-rule="evenodd">
        <rect id="Rectangle" x="0" y="0" width="80" height="40"></rect>
        <path d="M30.5666359,13.9239864 C31.4409471,12.4156267 33.4106863,12.1356335 34.656722,13.3022242 C34.9692176,13.5948013 35.2238958,13.9708902 35.4388077,14.3472652 C37.5605644,18.0663984 39.6690653,21.7932536 41.778412,25.5195369 C41.8923549,25.7208803 41.9941698,25.9310897 42.0801904,26.1458751 C42.8557891,28.0789435 41.6506495,29.9691121 39.5965815,30 C39.5380402,30 39.4781123,29.9999994 39.4169551,29.9999981 L34.8360969,29.999428 L34.8363789,25.8704579 C34.8363789,25.8704579 35.0967642,25.8708125 35.4785423,25.8710658 L36.2034073,25.8713159 C36.9172404,25.8481499 37.0774365,25.5713028 36.723481,24.9389586 C35.6150801,22.9578423 34.4883463,20.987308 33.3652789,19.0147716 C32.9960939,18.3666975 32.6968541,18.4178914 32.3589749,19.0007578 C31.2215239,20.9632841 30.095636,22.9329604 28.982158,24.9095006 C28.5999992,25.5881767 28.7596314,25.8655959 29.5338204,25.8655959 C30.1855655,25.8655959 30.6920559,25.8700085 30.8234665,25.8712692 L30.8568512,25.8716019 C30.8568512,25.8716019 30.8531848,28.5963161 30.8512101,29.988274 C29.3936489,29.988274 26.5718788,30.0128699 25.9110687,29.9705421 C23.8812556,29.8406985 22.7150365,27.6965626 23.7376988,25.8738899 C25.9829877,21.8727614 28.2660683,17.8927969 30.5666359,13.9239864 Z M40.9610713,10.0309656 C45.5368229,9.99006774 50.1134213,9.99378572 54.6891728,10.0183817 C56.4284887,10.0278196 57.666062,11.627127 57.2940564,13.3188121 C57.2007031,13.7432349 57.0066617,14.1587917 56.7914688,14.5391706 C54.6688663,18.2971998 52.5324431,22.0469349 50.3971487,25.7975281 C50.2817961,26.0000155 50.1526237,26.1964969 50.0116064,26.3815384 C48.7424445,28.0454816 46.5075909,27.9370879 45.4414949,26.1367231 C44.5418,24.6174955 44.1528723,23.8836216 43.2822275,22.3469481 C43.2097447,22.2191064 43.1211855,22.1012748 43.0518042,21.9176633 C44.2073061,21.2372712 45.3867801,20.5425793 46.5671008,19.8476013 C46.9859245,20.5688912 46.881571,20.4115916 47.2730363,21.0479399 C47.6540673,21.667128 47.9730498,21.668558 48.3377225,21.0356419 C49.4794038,19.0530956 50.6109327,17.0645433 51.7300508,15.0688411 C52.0670842,14.4676708 51.9049134,14.1759516 51.2328213,14.1722337 C48.9703293,14.1602217 46.7072723,14.1622237 44.4447803,14.1782396 C43.6677708,14.1839596 43.5259066,14.4565168 43.9021424,15.1497788 C44.2572258,15.804145 44.1621797,15.6374074 44.5519533,16.3309554 C43.3482244,17.0373734 42.2226185,17.6983175 41.0253755,18.4010174 C40.3290294,17.1878089 40.1623455,16.8972338 39.5314314,15.792991 C39.1960907,15.2064067 38.8381868,14.6309763 38.5397929,14.0255161 C37.6243037,12.1656635 38.8768263,10.0495556 40.9610713,10.0309656 Z" id="Combined-Shape" fill="#000000"></path>
    </g>
</svg>