<?xml version="1.0" encoding="UTF-8"?>
<svg width="80px" height="40px" viewBox="0 0 80 40" version="1.1" xmlns="http://www.w3.org/2000/svg" xmlns:xlink="http://www.w3.org/1999/xlink">
    <!-- Generator: Sketch 60.1 (88133) - https://sketch.com -->
    <title>payment / amex</title>
    <desc>Created with Sketch.</desc>
    <g id="payment-/-amex" stroke="none" stroke-width="1" fill="none" fill-rule="evenodd">
        <rect id="Rectangle" x="0" y="0" width="80" height="40"></rect>
        <path d="M16.7628488,14 L21.1421746,14 L26.1200664,25.3400944 L26.1200664,14 L30.9174508,14 L34.7622868,22.1307921 L38.305756,14 L43.0791768,14 L43.0791768,26 L40.1746469,26 L40.1509439,16.5968701 L35.9164408,26 L33.3182267,26 L29.0600207,16.5968701 L29.0600207,26 L23.0847793,26 L21.9519839,23.309757 L15.8319198,23.309757 L14.7014687,25.9976394 L11.5,25.9976394 C11.5,25.9976394 16.7628488,14 16.7628488,14 Z M45.7365183,14 L57.5468668,14 L61.1591008,17.9290086 L64.887766,14 L68.5,14 L63.0115819,20.0312118 L68.5,25.9929183 L64.7239287,25.9929183 L61.1116948,22.0182724 L57.364015,25.9929183 L45.7365183,25.9929183 L45.7365183,14 L45.7365183,14 Z M18.8932542,16.0303375 L16.8769358,20.8227837 L20.9072283,20.8227837 L18.8932542,16.0303375 Z M48.6530299,16.4846127 L48.6530299,18.6752055 L55.0960801,18.6752055 L55.0960801,21.1168036 L48.6530299,21.1168036 L48.6530299,23.5083056 L55.8798422,23.5083056 L59.2378549,19.9858367 L56.0223207,16.4825144 L48.6530299,16.4825144 L48.6530299,16.4846127 Z" id="Shape" fill="#000000"></path>
    </g>
</svg>