<?xml version="1.0" encoding="UTF-8"?>
<svg width="80px" height="40px" viewBox="0 0 80 40" version="1.1" xmlns="http://www.w3.org/2000/svg" xmlns:xlink="http://www.w3.org/1999/xlink">
    <!-- Generator: Sketch 60.1 (88133) - https://sketch.com -->
    <title>payment / mastercard</title>
    <desc>Created with Sketch.</desc>
    <g id="payment-/-mastercard" stroke="none" stroke-width="1" fill="none" fill-rule="evenodd">
        <rect id="Rectangle" x="0" y="0" width="80" height="40"></rect>
        <path d="M34.2489846,10.0000556 C36.2736804,10.0000556 38.1555405,10.6156094 39.7231621,11.671162 C39.6429544,11.7378285 39.5619226,11.8031061 39.4841871,11.8711615 C37.154592,13.9211558 35.818529,16.8839253 35.818529,19.99975 C35.818529,23.116408 37.154592,26.0788998 39.4841871,28.1283385 C39.5613733,28.1963939 39.6429544,28.2619493 39.7231621,28.3286158 C38.1558152,29.3841684 36.2736804,30 34.2489846,30 C28.7877172,30 24.3603604,25.5227902 24.3603604,20.0000278 C24.3603604,14.4772653 28.7877172,10.0000556 34.2489846,10.0000556 Z M46.4717361,10 C51.9332782,10 56.3603604,14.476932 56.3603604,19.9999722 C56.3603604,25.5227347 51.9332782,29.9999444 46.4717361,29.9999444 C44.447315,29.9999444 42.5651802,29.3841128 40.9975586,28.3285602 C41.0777663,28.2621715 41.1596221,28.1963383 41.2368084,28.128283 C43.5664034,26.0788442 44.9024664,23.1160747 44.9024664,19.9999722 C44.9024664,16.8838698 43.5664034,13.9211002 41.2365337,11.8713837 C41.1590728,11.8030505 41.0777663,11.737773 40.9975586,11.6713842 C42.5651802,10.6155538 44.447315,10 46.4717361,10 Z M40.3605389,12.1417718 C40.4879923,12.2431604 40.6126988,12.3476046 40.7346585,12.4548265 C42.8184114,14.2884325 44.137444,16.9875917 44.137444,19.9998056 C44.137444,23.0122972 42.8184114,25.7114564 40.7346585,27.5447846 C40.6126988,27.6522843 40.4879923,27.7567285 40.3605389,27.8581171 C40.2330855,27.7567285 40.108379,27.6522843 39.9864193,27.5447846 C37.9026664,25.7114564 36.5833591,23.0122972 36.5833591,19.9998056 C36.5833591,16.9875917 37.9026664,14.2884325 39.9864193,12.4548265 C40.108379,12.3476046 40.2330855,12.2431604 40.3605389,12.1417718 Z" id="Combined-Shape" fill="#000000"></path>
    </g>
</svg>