<?xml version="1.0" encoding="UTF-8"?>
<svg width="80px" height="40px" viewBox="0 0 80 40" version="1.1" xmlns="http://www.w3.org/2000/svg" xmlns:xlink="http://www.w3.org/1999/xlink">
    <!-- Generator: Sketch 60.1 (88133) - https://sketch.com -->
    <title>payment / paypal</title>
    <desc>Created with Sketch.</desc>
    <g id="payment-/-paypal" stroke="none" stroke-width="1" fill="none" fill-rule="evenodd">
        <rect id="Rectangle" x="0" y="0" width="80" height="40"></rect>
        <path d="M35.9146871,17.0506368 C36.1822839,17.0506368 36.4186611,17.227089 36.4955506,17.4845945 L36.4955506,17.4845945 L37.7209655,21.5978682 L40.6119028,17.317467 C40.7251854,17.1505188 40.9132168,17.0506368 41.1132008,17.0506368 L41.1132008,17.0506368 L43.2091973,17.0506368 C43.5028401,17.0506368 43.6741021,17.381664 43.5073001,17.6235686 L43.5073001,17.6235686 L36.5358685,27.7387288 C36.423121,27.9024492 36.2370521,28 36.0384952,28 L36.0384952,28 L33.9448179,28 C33.6499263,28 33.4779507,27.6662829 33.6486775,27.4236611 L33.6486775,27.4236611 L35.8192443,24.3436371 L33.5105976,17.5331906 C33.4308537,17.2963071 33.6047916,17.0506368 33.8550838,17.0506368 L33.8550838,17.0506368 Z M26.9543691,16.8533833 C27.9592843,16.8533833 28.9663402,17.0735899 29.4178652,17.7324166 L29.4178652,17.7324166 L29.5636162,17.9449125 L29.6560263,17.3585316 C29.6834996,17.1813621 29.8369218,17.0506368 30.014606,17.0506368 L30.014606,17.0506368 L32.1004338,17.0506368 C32.3232527,17.0506368 32.4934443,17.2509387 32.4577647,17.4718627 L32.4577647,17.4718627 L31.3304687,24.6477662 C31.2833716,24.9441844 31.031117,25.1617013 30.7323006,25.1617013 L30.7323006,25.1617013 L28.8535928,25.1617013 C28.631309,25.1617013 28.4605823,24.9621166 28.4955482,24.7393994 L28.4955482,24.7393994 L28.5884935,24.1567843 C28.5884935,24.1567843 27.5587811,25.3569822 25.7014809,25.3569822 C24.6193195,25.3569822 23.7100256,25.0433491 23.074394,24.290558 C22.3814968,23.4717766 22.0980226,22.2975802 22.297293,21.0697668 C22.68067,18.6082222 24.6492904,16.8533833 26.9543691,16.8533833 Z M58.0240335,16.8533833 C59.0291271,16.8533833 60.035291,17.0735899 60.4869944,17.7324166 L60.4869944,17.7324166 L60.6334591,17.9449125 L60.7258692,17.3585316 C60.7524504,17.1813621 60.9048022,17.0506368 61.0835569,17.0506368 L61.0835569,17.0506368 L63.1683143,17.0506368 C63.3918468,17.0506368 63.5625735,17.2509387 63.5281428,17.4718627 L63.5281428,17.4718627 L62.4001331,24.6477662 C62.3537496,24.9441844 62.1002463,25.1617013 61.802857,25.1617013 L61.802857,25.1617013 L59.924506,25.1617013 C59.7009734,25.1617013 59.5302467,24.9621166 59.5653911,24.7393994 L59.5653911,24.7393994 L59.6583364,24.1567843 C59.6583364,24.1567843 58.6284455,25.3569822 56.7713238,25.3569822 C55.6891623,25.3569822 54.7809388,25.0433491 54.1440585,24.290558 C53.4511612,23.4717766 53.1689358,22.2975802 53.367671,21.0697668 C53.751048,18.6082222 55.7191332,16.8533833 58.0240335,16.8533833 Z M19.0803514,13.0006635 C20.5382187,13.0006635 21.6362575,13.3872804 22.2552981,14.1185529 C22.8190353,14.7841939 23.0054611,15.7349558 22.8106506,16.9448372 C22.3782142,19.7105107 20.7223253,21.106169 17.8531525,21.106169 L17.8531525,21.106169 L16.474137,21.106169 C16.1767478,21.106169 15.9225308,21.3238652 15.8766826,21.6202834 L15.8766826,21.6202834 L15.4016091,24.6483042 C15.3552256,24.9447224 15.1017223,25.1624185 14.8036195,25.1624185 L14.8036195,25.1624185 L12.724214,25.1624185 C12.5005031,25.1624185 12.3299547,24.9626545 12.3649207,24.741372 L12.3649207,24.741372 L14.1265996,13.5140606 C14.172983,13.2183596 14.4264864,13.0006635 14.7245892,13.0006635 L14.7245892,13.0006635 Z M50.148767,13.0006635 C51.6066343,13.0006635 52.7039596,13.3872804 53.322465,14.1185529 C53.8860238,14.7841939 54.0740552,15.7349558 53.8783527,16.9448372 C53.4453811,19.7105107 51.7900273,21.106169 48.9201409,21.106169 L48.9201409,21.106169 L47.5420175,21.106169 C47.2446282,21.106169 46.9904113,21.3238652 46.944563,21.6202834 L46.944563,21.6202834 L46.4445138,24.8026999 C46.4122238,25.0101747 46.2345395,25.1624185 46.0268844,25.1624185 L46.0268844,25.1624185 L43.7912024,25.1624185 C43.5689187,25.1624185 43.3983704,24.9626545 43.4333363,24.741372 L43.4333363,24.741372 L45.1950152,13.5140606 C45.2415771,13.2183596 45.4950804,13.0006635 45.7924696,13.0006635 L45.7924696,13.0006635 Z M67.9977584,13 C68.2200422,13 68.3907689,13.200302 68.3558029,13.4219432 L68.3558029,13.4219432 L66.5928753,24.648358 C66.547027,24.9447762 66.2935237,25.1624723 65.9948857,25.1624723 L65.9948857,25.1624723 L64.1973488,25.1624723 C63.9752435,25.1624723 63.8045167,24.9627083 63.8396611,24.7412464 L63.8396611,24.7412464 L65.6273861,13.3086121 C65.6546809,13.1312632 65.8075679,13.0007173 65.9852522,13 L65.9852522,13 Z M27.4492448,19.076789 C26.2614718,19.076789 25.2995506,19.9072263 25.1116976,21.0946924 C25.0135788,21.6773076 25.1309646,22.2003881 25.4390577,22.5678176 C25.7498268,22.9377576 26.2339986,23.1330385 26.8396593,23.1330385 C28.0459856,23.1330385 28.9916727,22.3289615 29.1930839,21.131274 C29.2840668,20.5511694 29.1579395,20.0248611 28.8402129,19.6477483 C28.5230215,19.2745805 28.0415257,19.076789 27.4492448,19.076789 Z M58.5171252,19.076789 C57.3293523,19.076789 56.3688582,19.9072263 56.1795781,21.0946924 C56.082708,21.6773076 56.198845,22.2003881 56.5069381,22.5678176 C56.8177072,22.9377576 57.3031278,23.1330385 57.9075397,23.1330385 C59.1136877,23.1330385 60.0608019,22.3289615 60.2607859,21.131274 C60.353196,20.5511694 60.2270687,20.0248611 59.9080934,19.6477483 C59.5907236,19.2745805 59.1092277,19.076789 58.5171252,19.076789 Z M17.6400068,15.4304939 L17.1582928,15.4302888 C16.979895,15.4302888 16.827008,15.5608348 16.7995347,15.7381836 L16.7995347,15.7381836 L16.3385547,18.67224 L17.1291326,18.6721506 C18.2409755,18.669916 19.3537255,18.6118156 19.5828982,17.1012054 C19.6701347,16.5492542 19.6000243,16.1499055 19.3713183,15.8809234 C18.9879413,15.4302888 18.2459846,15.4302888 17.4594284,15.4302888 Z M48.7089958,15.4304939 L48.2272437,15.4302888 C48.048489,15.4302888 47.8968508,15.5608348 47.8693775,15.7381836 L47.8693775,15.7381836 L47.4076839,18.67224 L48.1976274,18.6721506 C49.3101036,18.669916 50.4228273,18.6118156 50.6513138,17.1012054 C50.7387287,16.5492542 50.6691536,16.1499055 50.4406259,15.8809234 C50.0570705,15.4302888 49.3144002,15.4302888 48.5285576,15.4302888 Z" id="Combined-Shape" fill="#000000"></path>
    </g>
</svg>