<?xml version="1.0" encoding="UTF-8"?>
<svg width="80px" height="40px" viewBox="0 0 80 40" version="1.1" xmlns="http://www.w3.org/2000/svg" xmlns:xlink="http://www.w3.org/1999/xlink">
    <!-- Generator: Sketch 60.1 (88133) - https://sketch.com -->
    <title>payment / union_pay</title>
    <desc>Created with Sketch.</desc>
    <defs>
        <polygon id="path-1" points="0.000444444444 0 32.0888889 0 32.0888889 19.6344444 0.000444444444 19.6344444"></polygon>
    </defs>
    <g id="payment-/-union_pay" stroke="none" stroke-width="1" fill="none" fill-rule="evenodd">
        <rect id="Rectangle" x="0" y="0" width="80" height="40"></rect>
        <g id="Group-3" transform="translate(23.500000, 10.000000)">
            <mask id="mask-2" fill="white">
                <use xlink:href="#path-1"></use>
            </mask>
            <g id="Clip-2"></g>
            <path d="M28.3337778,6.89222222 L27.5293333,6.89222222 L26.736,8.74111111 L26.6893333,6.89222222 L26.2682222,6.89222222 L25.7637778,6.89666667 L26.0015556,9.85222222 C25.8037778,10.2511111 25.446,11.1588889 24.7948889,11.3577778 L24.7315556,11.8266667 C25.5082222,11.8566667 25.8237778,11.4711111 25.9904444,11.3055556 C26.1493333,11.1411111 26.4271111,10.7811111 26.7193333,10.1644444 L28.3337778,6.89222222 Z M25.8337778,12.0433333 L23.0326667,12.0433333 L22.8693333,12.6211111 L23.836,12.6211111 L23.6804444,13.1588889 L22.7115556,13.1588889 L22.5482222,13.7411111 L23.4426667,13.7411111 L22.7482222,14.7388889 C22.6682222,14.83 22.5815556,14.8777778 22.4771111,14.8777778 L22.2271111,14.8777778 L22.0648889,15.4377778 L22.8826667,15.4377778 C23.0937778,15.4511111 23.2604444,15.3644444 23.3626667,15.1777778 L23.8026667,14.5177778 L23.9326667,15.1388889 C23.946,15.3377778 24.0893333,15.4288889 24.3626667,15.4166667 L24.8948889,15.4166667 L25.0571111,14.8566667 L24.9037778,14.8566667 C24.8037778,14.8566667 24.7448889,14.8255556 24.7315556,14.7566667 L24.6171111,14.0755556 L24.1326667,14.0755556 L24.3582222,13.7366667 L25.3471111,13.7366667 L25.5171111,13.1588889 L24.626,13.1588889 L24.7793333,12.6211111 L25.6693333,12.6211111 L25.8337778,12.0433333 Z M22.0404444,15.1822222 L22.2082222,14.5833333 L22.0304444,14.5833333 L22.8871111,11.5622222 L23.0693333,11.5622222 L23.2471111,10.9244444 L22.1082222,10.9244444 C21.7715556,10.9244444 21.3026667,11.1588889 21.3026667,11.1588889 L21.3415556,10.9244444 L20.4215556,10.9244444 L20.2437778,11.5622222 L20.4171111,11.5622222 L19.5604444,14.5833333 L19.3826667,14.5833333 L19.2148889,15.1822222 L20.9726667,15.1822222 L20.8948889,15.4377778 L21.7826667,15.4377778 L21.8626667,15.1822222 L22.0404444,15.1822222 Z M18.7982222,12.9988889 L19.3782222,10.8933333 L17.8593333,10.8933333 C17.4471111,10.8933333 16.9926667,11.2322222 16.9926667,11.2322222 L17.0304444,10.9022222 L16.2248889,10.9022222 L15.0815556,15.1166667 C15.0293333,15.3166667 15.1682222,15.4166667 15.4982222,15.4166667 L16.3637778,15.4166667 L16.4848889,14.9566667 L16.1448889,14.9566667 C16.0582222,14.9566667 16.0293333,14.9122222 16.0493333,14.8344444 L16.4548889,13.3588889 L18.176,13.3588889 C18.5415556,13.3588889 18.7504444,13.2377778 18.7982222,12.9988889 L18.7982222,12.9988889 Z M18.7593333,13.52 L18.1082222,13.52 L18.046,13.7366667 C18.046,13.8011111 17.9937778,13.8366667 17.8915556,13.8366667 L17.6771111,13.8366667 L17.696,13.4977778 L16.9104444,13.4977778 L16.8537778,15.0555556 C16.8493333,15.3211111 16.9782222,15.4466667 17.2448889,15.4377778 L18.1804444,15.4377778 L18.3104444,14.9777778 L17.9215556,14.9777778 C17.7482222,14.9777778 17.6637778,14.93 17.6682222,14.8388889 L17.6726667,14.2577778 L18.0893333,14.2577778 C18.406,14.2444444 18.6015556,14.1055556 18.6771111,13.8366667 L18.7593333,13.52 Z M14.9382222,14.9166667 L14.176,14.9166667 C13.9748889,14.93 13.9071111,14.8688889 13.9582222,14.7344444 L14.1804444,13.94 L15.1204444,13.94 L15.2726667,13.3811111 L14.3304444,13.3811111 L14.4782222,12.8377778 L15.446,12.8377778 L15.5993333,12.2777778 L13.1948889,12.2777778 L13.0415556,12.8377778 L13.6204444,12.8377778 L13.4726667,13.3766667 L12.8693333,13.3766667 L12.716,13.9366667 L13.3193333,13.9366667 L13.0371111,14.9566667 C12.9504444,15.2777778 13.046,15.4377778 13.3282222,15.4377778 L14.7993333,15.4377778 L14.9382222,14.9166667 Z M12.5771111,8.65888889 C12.5771111,8.98444444 12.6771111,9.23555556 12.8782222,9.42222222 C13.0737778,9.60888889 13.3426667,9.70444444 13.6804444,9.70444444 C14.0937778,9.70444444 14.4448889,9.57444444 14.736,9.31777778 C15.0293333,9.06222222 15.2204444,8.71 15.3071111,8.27222222 C15.3204444,8.20666667 15.3304444,8.13777778 15.3393333,8.06777778 C15.3471111,7.99888889 15.3504444,7.93333333 15.3504444,7.87666667 C15.3504444,7.55111111 15.2526667,7.29111111 15.0571111,7.10444444 C14.8615556,6.91333333 14.5926667,6.81777778 14.2526667,6.81777778 C13.836,6.81777778 13.486,6.94888889 13.1893333,7.21333333 C12.8982222,7.47333333 12.7082222,7.82555556 12.616,8.27222222 C12.6048889,8.33777778 12.596,8.40222222 12.586,8.47222222 C12.5815556,8.54111111 12.5771111,8.60222222 12.5771111,8.65888889 L12.5771111,8.65888889 Z M12.4526667,5.88888889 L11.6915556,5.88888889 L11.5504444,6.55777778 L12.3082222,6.55777778 L12.4526667,5.88888889 Z M12.2082222,6.89222222 L11.4548889,6.89222222 L10.8682222,9.63111111 L11.6193333,9.63111111 L12.2082222,6.89222222 Z M14.7837778,11.2444444 L14.9748889,10.9066667 L14.0615556,10.9066667 L13.7204444,11.4188889 C13.6804444,11.4966667 13.5971111,11.54 13.4771111,11.54 L13.3471111,11.54 L13.1993333,12.0777778 L13.8793333,12.0777778 C14.1004444,12.0911111 14.2871111,11.9877778 14.4348889,11.7622222 L15.7426667,11.7622222 L15.8815556,11.2444444 L14.7837778,11.2444444 Z M15.546,9.63444444 L16.2448889,9.63444444 L16.5571111,8.06 C16.5971111,7.86 16.6804444,7.70333333 16.806,7.59111111 C16.926,7.48222222 17.0782222,7.42555556 17.2604444,7.42555556 C17.4037778,7.42555556 17.5048889,7.46444444 17.5615556,7.55111111 C17.6137778,7.63444444 17.6204444,7.76444444 17.586,7.93777778 L17.2471111,9.63444444 L17.946,9.63444444 L18.3193333,7.76444444 C18.3815556,7.46888889 18.3471111,7.23888889 18.2193333,7.07 C18.0893333,6.90444444 17.8871111,6.81777778 17.6004444,6.81777778 C17.2837778,6.81777778 17.0137778,6.93555556 16.7915556,7.17444444 L16.7004444,7.28666667 L16.776,6.89222222 L16.0971111,6.89222222 L15.546,9.63444444 Z M18.5448889,9.63444444 L19.4671111,9.63444444 L19.7915556,8.02444444 L20.8515556,8.02444444 C21.2748889,8.02444444 21.6437778,7.89444444 21.9626667,7.63888889 C22.2748889,7.38222222 22.4748889,7.04 22.5615556,6.61888889 C22.5815556,6.54 22.5915556,6.46666667 22.6004444,6.39333333 C22.6093333,6.31888889 22.6137778,6.25 22.6137778,6.18888889 L22.6137778,6.18 C22.6137778,5.85888889 22.5137778,5.61555556 22.3082222,5.44222222 C22.106,5.27333333 21.8148889,5.18666667 21.4371111,5.18666667 L19.4582222,5.18666667 L18.5448889,9.63444444 Z M24.3304444,11.3233333 C24.2326667,11.3233333 24.1804444,11.2844444 24.1893333,11.2022222 L24.1482222,10.8844444 L23.286,10.8844444 L23.3148889,11.5833333 C23.3282222,11.7833333 23.4493333,11.8744444 23.6926667,11.8611111 L24.3282222,11.8611111 L24.4826667,11.3233333 L24.3304444,11.3233333 Z M23.6593333,9.46111111 L23.7882222,9.61333333 L24.656,9.63444444 L25.2248889,7.04777778 L24.4693333,7.11333333 L24.1526667,7.33444444 C23.8204444,7.07444444 23.516,6.90888889 22.926,7.18222222 C22.126,7.55555556 21.4582222,10.3988889 23.6593333,9.46111111 L23.6593333,9.46111111 Z M10.426,7.07 C10.296,6.90111111 10.0915556,6.81777778 9.80488889,6.81777778 C9.48822222,6.81777778 9.21822222,6.93555556 8.99822222,7.17444444 L8.90266667,7.28666667 L8.98044444,6.88777778 L8.29933333,6.88777778 L7.75266667,9.63444444 L8.44933333,9.63444444 L8.76377778,8.06 C8.80155556,7.86 8.88488889,7.70333333 9.00488889,7.59111111 C9.13266667,7.48222222 9.28266667,7.42555556 9.46266667,7.42555556 C9.60822222,7.42555556 9.70933333,7.46444444 9.76155556,7.55111111 C9.81711111,7.63444444 9.82711111,7.76444444 9.79155556,7.93777778 L9.45266667,9.63444444 L10.1526667,9.63444444 L10.526,7.76444444 C10.5848889,7.46888889 10.5515556,7.23888889 10.426,7.07 L10.426,7.07 Z M7.41266667,8.09888889 L8.05155556,5.02555556 L7.09266667,5.02555556 L6.46155556,8.06333333 C6.40711111,8.33333333 6.28488889,8.53666667 6.09266667,8.68 C5.90266667,8.82777778 5.66044444,8.90111111 5.36488889,8.90111111 C5.10933333,8.90111111 4.92266667,8.82777778 4.80933333,8.68 C4.73155556,8.58 4.69266667,8.45 4.69266667,8.29777778 C4.69266667,8.22444444 4.69933333,8.14666667 4.71822222,8.06333333 L5.34711111,5.02555556 L4.38266667,5.02555556 L3.746,8.09888889 C3.716,8.24555556 3.70266667,8.38444444 3.70266667,8.51555556 C3.70266667,8.82777778 3.79377778,9.08777778 3.976,9.29222222 C4.236,9.57888889 4.65377778,9.72222222 5.21155556,9.72222222 C5.81044444,9.72222222 6.30155556,9.58333333 6.68044444,9.30555556 C7.06044444,9.01888889 7.30488889,8.61888889 7.41266667,8.09888889 L7.41266667,8.09888889 Z M32.0404444,1.90444444 L28.4582222,17.7422222 C28.2282222,18.7577778 27.2404444,19.5833333 26.2248889,19.6344444 L18.2715556,19.6344444 C17.2404444,19.6177778 16.5971111,18.7755556 16.8348889,17.7344444 L17.1126667,16.5011111 L16.4893333,16.5011111 L16.2115556,17.7344444 C15.9771111,18.7711111 16.6137778,19.6177778 17.6482222,19.6344444 L9.196,19.6344444 C8.16488889,19.6177778 7.52266667,18.7755556 7.75488889,17.7344444 L8.58822222,14.0577778 L7.86044444,14.0577778 L7.03155556,17.7344444 C6.79266667,18.7711111 7.43377778,19.6177778 8.46822222,19.6344444 L1.48044444,19.6344444 C0.650444444,19.6222222 0.0693333333,19.0711111 0.000444444444,18.3155556 L0.000444444444,18.02 C0.00933333333,17.9288889 0.0226666667,17.8333333 0.0437777778,17.7377778 L3.62488889,1.89666667 C3.86377778,0.85 5.20933333,0 6.25377778,0 L13.1993333,0 C12.156,0.0211111111 10.8471111,0.863333333 10.6071111,1.89666667 L9.93933333,4.87333333 L10.6648889,4.87333333 L11.3371111,1.89666667 C11.5748889,0.863333333 12.8871111,0.0211111111 13.9271111,0 L13.9704444,0 L19.3493333,0.00444444444 L22.3793333,0.00444444444 L22.3615556,0.00444444444 C21.3204444,0.0344444444 20.0248889,0.867777778 19.7882222,1.89666667 L19.1137778,4.87333333 L19.7404444,4.87333333 L20.4115556,1.89666667 C20.6471111,0.867777778 21.9448889,0.0344444444 22.9826667,0.00444444444 L22.9982222,0.00444444444 L30.5737778,0.00444444444 C31.6193333,0.00444444444 32.2793333,0.854444444 32.0404444,1.90444444 L32.0404444,1.90444444 Z M16.8004444,12.07 C16.8004444,12.07 17.026,11.9044444 17.4037778,11.9011111 C17.7826667,11.8922222 18.2126667,11.9011111 18.2126667,11.9011111 L18.3193333,11.5011111 L16.9626667,11.5011111 L16.8004444,12.07 Z M20.9971111,12.3777778 C20.9971111,12.3777778 21.4026667,12.2266667 21.7437778,12.1822222 C21.8237778,11.8966667 21.9215556,11.5622222 21.9215556,11.5622222 L21.2315556,11.5622222 L20.9971111,12.3777778 Z M20.656,13.6188889 C20.656,13.6188889 21.1015556,13.3977778 21.4026667,13.3811111 C21.4937778,13.0511111 21.5804444,12.7644444 21.5804444,12.7644444 L20.8904444,12.7644444 L20.656,13.6188889 Z M20.3782222,14.5833333 L21.0637778,14.5833333 L21.236,13.9622222 L20.5504444,13.9622222 L20.3782222,14.5833333 Z M16.6004444,12.8166667 L17.826,12.8166667 C17.9304444,12.8288889 17.986,12.79 17.9893333,12.6988889 L18.0737778,12.4 L16.7148889,12.4 L16.6004444,12.8166667 Z M23.286,9.13111111 C23.5293333,9.21 23.8415556,8.93666667 23.9804444,8.52777778 C24.1193333,8.11555556 24.0326667,7.71666667 23.7882222,7.64333333 C23.5493333,7.56444444 23.2326667,7.83777778 23.0993333,8.25 C22.9548889,8.66222222 23.0415556,9.05777778 23.286,9.13111111 L23.286,9.13111111 Z M13.8026667,9.09666667 C14.0093333,9.09666667 14.1804444,9.02777778 14.3148889,8.88 C14.4493333,8.73666667 14.5404444,8.52 14.6015556,8.22888889 C14.6082222,8.18111111 14.6171111,8.13777778 14.6215556,8.08555556 C14.6215556,8.04222222 14.626,7.99888889 14.626,7.96 C14.626,7.79 14.5837778,7.66 14.4971111,7.56444444 C14.4104444,7.47333333 14.2871111,7.42555556 14.1326667,7.42555556 C13.9226667,7.42555556 13.7504444,7.5 13.6204444,7.64333333 C13.486,7.79 13.3904444,8.01222222 13.3282222,8.31111111 C13.3193333,8.35444444 13.3104444,8.40222222 13.3082222,8.44555556 C13.3037778,8.48888889 13.3037778,8.53222222 13.3037778,8.57111111 C13.3037778,8.74111111 13.3471111,8.87111111 13.4337778,8.96222222 C13.5204444,9.05333333 13.6404444,9.09666667 13.8026667,9.09666667 L13.8026667,9.09666667 Z M20.8337778,7.25222222 L19.9571111,7.25222222 L20.2204444,5.95 L20.9671111,5.95 C21.2115556,5.95 21.3893333,5.98444444 21.5026667,6.05888889 C21.6137778,6.12777778 21.6671111,6.24555556 21.6671111,6.40111111 C21.6671111,6.43222222 21.6615556,6.46222222 21.6615556,6.49222222 C21.6526667,6.52777778 21.6482222,6.56666667 21.6415556,6.60555556 C21.5937778,6.82666667 21.5048889,6.98777778 21.3748889,7.09555556 C21.2404444,7.2 21.0637778,7.25222222 20.8337778,7.25222222 L20.8337778,7.25222222 Z" id="Fill-1" fill="#231F20" mask="url(#mask-2)"></path>
        </g>
    </g>
</svg>