<?xml version="1.0" encoding="UTF-8"?>
<svg width="80px" height="40px" viewBox="0 0 80 40" version="1.1" xmlns="http://www.w3.org/2000/svg" xmlns:xlink="http://www.w3.org/1999/xlink">
    <!-- Generator: Sketch 60.1 (88133) - https://sketch.com -->
    <title>payment / visa</title>
    <desc>Created with Sketch.</desc>
    <g id="payment-/-visa" stroke="none" stroke-width="1" fill="none" fill-rule="evenodd">
        <rect id="Rectangle" x="0" y="0" width="80" height="40"></rect>
        <path d="M41.1492936,17.7952308 C41.1248927,19.8850631 42.9948577,21.0492981 44.4036989,21.7439906 C45.8511897,22.4550479 46.3368926,22.9112827 46.3315493,23.5468104 C46.3205066,24.5206028 45.1761571,24.9496829 44.1066133,24.9664073 C42.237895,24.9958998 41.153212,24.4565825 40.2888496,24.0501612 L39.6161324,27.2290585 C40.4837008,27.6315234 42.0872149,27.9823764 43.749505,28 C47.654542,28 50.208267,26.0527748 50.2207346,23.0359065 C50.2369425,19.2076345 44.9770314,18.9961516 45.0130093,17.285406 C45.0251207,16.7653307 45.5154545,16.2121663 46.5896291,16.0702785 C47.1216403,16.0005035 48.5906822,15.9461941 50.254041,16.7194735 L50.9073443,13.6430806 C50.0123472,13.3152462 48.8622983,13 47.4295905,13 C43.756095,13 41.1699542,14.9720421 41.1492936,17.7952308 L41.1492936,17.7952308 Z M57.187285,13.2654326 C56.4732465,13.2654326 55.8717729,13.6842623 55.6049658,14.3295009 L50.0273084,27.7732313 L53.9298519,27.7732313 L54.7051598,25.6055316 L59.4733124,25.6055316 L59.922681,27.7732313 L63.3603604,27.7732313 L60.3595821,13.2654326 L57.187285,13.2654326 Z M57.7319419,17.1852394 L58.8579462,22.6325425 L55.7750598,22.6325425 L57.7319419,17.1852394 Z M36.4205031,13.2654326 L33.3456315,27.7732313 L37.0627637,27.7732313 L40.1365666,13.2654326 L36.4205031,13.2654326 Z M30.9210355,13.2654326 L27.0521546,23.13949 L25.48729,14.7441944 C25.304016,13.8067281 24.5784005,13.2654326 23.772814,13.2654326 L17.4479899,13.2654326 L17.3603604,13.6858808 C18.6584178,13.9710949 20.1338717,14.4307465 21.0272658,14.92061 C21.5744162,15.2205704 21.7304396,15.4822266 21.9103296,16.1950822 L24.8740612,27.7732313 L28.8027867,27.7732313 L34.8250038,13.2654326 L30.9210355,13.2654326 Z" id="visa" fill="#000000" transform="translate(40.360360, 20.500000) rotate(-360.000000) translate(-40.360360, -20.500000) "></path>
    </g>
</svg>