<?xml version="1.0" encoding="UTF-8"?>
<svg width="251px" height="28px" viewBox="0 0 251 28" version="1.1" xmlns="http://www.w3.org/2000/svg" xmlns:xlink="http://www.w3.org/1999/xlink">
    <!-- Generator: Sketch 60.1 (88133) - https://sketch.com -->
    <title>logo / women</title>
    <desc>Created with Sketch.</desc>
    <g id="logo-/-women" stroke="none" stroke-width="1" fill="none" fill-rule="evenodd">
        <path d="M9.2578,21.2879 C9.4588,22.2409 9.4798,23.1589 9.3358,23.9829 L9.3358,23.9829 C9.3378,23.9819 9.1738,25.6679 8.1918,26.5499 C8.1208,26.6129 8.0608,26.6699 8.0088,26.7229 C7.4968,27.1599 6.9498,27.5309 6.3368,27.7419 C6.4518,26.7359 6.8408,25.3639 6.3148,24.3579 C6.2348,24.1179 6.0508,23.9129 5.9738,23.6679 L5.9738,23.6679 L6.0928,23.5629 C6.4768,23.1769 6.8978,22.7309 7.2688,22.2329 C7.2508,22.3399 7.2478,22.4569 7.3028,22.5869 L7.3028,22.5869 L7.3598,22.7239 L7.4858,22.6459 C7.8598,22.4129 8.2158,22.1219 8.5598,21.8389 C8.7868,21.6529 9.0198,21.4619 9.2578,21.2879 Z M12.4777,16.6074 C12.7627,17.5054 12.5647,18.6174 12.3487,19.6064 C12.3267,19.7094 12.2947,19.8124 12.2627,19.9154 C12.1947,20.1374 12.1237,20.3664 12.1407,20.6034 L12.1407,20.6034 L12.1557,20.8134 L12.3347,20.7014 C12.9867,20.2914 13.5647,19.7744 14.1757,19.2274 L14.1757,19.2274 L14.2097,19.1974 C14.2097,19.1974 14.3307,19.0834 14.4457,18.9704 C13.5837,21.1234 12.1177,23.2154 10.0507,24.5944 C10.0777,24.4724 10.0977,24.3814 10.0977,24.3814 C10.2947,22.8454 10.2617,21.6184 9.9977,20.6404 L9.9977,20.6404 L10.0237,20.5474 C11.3197,19.3324 12.0017,17.8964 12.4777,16.6074 Z M218.1869,4.9112 C219.6879,4.9112 220.6579,5.1422 221.2589,5.3042 C221.4659,5.3492 221.5809,5.4192 221.5809,5.5802 C221.5809,5.8812 221.4909,6.5502 221.4909,8.3522 C221.4909,8.8602 221.4199,9.0442 221.2349,9.0442 C221.0729,9.0442 221.0049,8.9062 221.0049,8.6292 C221.0049,8.4212 220.8899,7.7052 220.4039,7.1042 C220.0569,6.6662 219.3879,5.9732 217.8879,5.9732 C216.1789,5.9732 215.1389,6.9662 215.1389,8.3522 C215.1389,9.4142 215.6709,10.2222 217.5859,11.6772 L217.5859,11.6772 L218.2329,12.1622 C221.0049,14.3102 222.0209,15.8572 222.0209,18.0512 C222.0209,19.3912 221.5129,20.9842 219.8499,22.0692 C218.6949,22.8082 217.4019,23.0162 216.1789,23.0162 C214.8379,23.0162 213.7999,22.8552 212.8059,22.4152 C212.4369,22.2542 212.3669,22.1392 212.3669,21.6302 C212.3669,20.3602 212.4599,18.9742 212.4839,18.6052 C212.5059,18.2592 212.5759,18.0052 212.7599,18.0052 C212.9679,18.0052 212.9919,18.2122 212.9919,18.3972 C212.9919,18.6982 213.0849,19.1832 213.1989,19.5752 C213.7069,21.2842 215.0699,21.9072 216.5009,21.9072 C218.5799,21.9072 219.5959,20.4992 219.5959,19.2742 C219.5959,18.1432 219.2489,17.0572 217.3339,15.5802 L217.3339,15.5802 L216.2709,14.7482 C213.7299,12.7622 212.8529,11.1462 212.8529,9.2752 C212.8529,6.7352 214.9769,4.9112 218.1869,4.9112 Z M94.6652,4.8413 C94.9192,4.8413 95.1272,5.1423 95.5192,5.5573 C95.7972,5.8573 99.3072,9.6223 102.6792,12.9703 C104.2492,14.5413 107.3672,17.8663 107.7592,18.2363 L107.7592,18.2363 L107.8752,18.2363 L107.6442,7.8673 C107.6212,6.4583 107.4132,6.0193 106.8582,5.7883 C106.5122,5.6503 105.9582,5.6503 105.6352,5.6503 C105.3572,5.6503 105.2652,5.5803 105.2652,5.4423 C105.2652,5.2573 105.5192,5.2343 105.8662,5.2343 C107.0662,5.2343 108.1752,5.3043 108.6602,5.3043 C108.9142,5.3043 109.7912,5.2343 110.9232,5.2343 C111.2232,5.2343 111.4542,5.2573 111.4542,5.4423 C111.4542,5.5803 111.3162,5.6503 111.0392,5.6503 C110.8082,5.6503 110.6232,5.6503 110.3452,5.7193 C109.6992,5.9033 109.5142,6.3893 109.4912,7.6823 L109.4912,7.6823 L109.2372,22.2543 C109.2372,22.7623 109.1452,22.9703 108.9372,22.9703 C108.6822,22.9703 108.4062,22.7163 108.1512,22.4623 C106.6972,21.0763 103.7412,18.0513 101.3392,15.6723 C98.8222,13.1783 96.2582,10.2913 95.8432,9.8533 L95.8432,9.8533 L95.7732,9.8533 L96.0282,19.5523 C96.0742,21.3543 96.3742,21.9543 96.8362,22.1163 C97.2292,22.2543 97.6672,22.2773 98.0372,22.2773 C98.2912,22.2773 98.4302,22.3243 98.4302,22.4623 C98.4302,22.6473 98.2222,22.6933 97.8982,22.6933 C96.3972,22.6933 95.4742,22.6243 95.0352,22.6243 C94.8272,22.6243 93.7412,22.6933 92.5412,22.6933 C92.2402,22.6933 92.0332,22.6693 92.0332,22.4623 C92.0332,22.3243 92.1712,22.2773 92.4022,22.2773 C92.7022,22.2773 93.1182,22.2543 93.4412,22.1623 C94.0412,21.9773 94.1342,21.3073 94.1572,19.2983 L94.1572,19.2983 L94.3652,5.6273 C94.3652,5.1653 94.4342,4.8413 94.6652,4.8413 Z M192.1339,4.8413 C192.3879,4.8413 192.5959,5.1423 192.9889,5.5573 C193.2649,5.8573 196.7769,9.6223 200.1469,12.9703 C201.7179,14.5413 204.8359,17.8663 205.2289,18.2363 L205.2289,18.2363 L205.3439,18.2363 L205.1119,7.8673 C205.0899,6.4583 204.8819,6.0193 204.3279,5.7883 C203.9809,5.6503 203.4269,5.6503 203.1039,5.6503 C202.8259,5.6503 202.7339,5.5803 202.7339,5.4423 C202.7339,5.2573 202.9879,5.2343 203.3339,5.2343 C204.5359,5.2343 205.6439,5.3043 206.1279,5.3043 C206.3819,5.3043 207.2609,5.2343 208.3919,5.2343 C208.6919,5.2343 208.9219,5.2573 208.9219,5.4423 C208.9219,5.5803 208.7849,5.6503 208.5089,5.6503 C208.2769,5.6503 208.0919,5.6503 207.8139,5.7193 C207.1679,5.9033 206.9829,6.3893 206.9609,7.6823 L206.9609,7.6823 L206.7069,22.2543 C206.7069,22.7623 206.6139,22.9703 206.4059,22.9703 C206.1519,22.9703 205.8739,22.7163 205.6199,22.4623 C204.1649,21.0763 201.2099,18.0513 198.8089,15.6723 C196.2909,13.1783 193.7289,10.2913 193.3119,9.8533 L193.3119,9.8533 L193.2429,9.8533 L193.4969,19.5523 C193.5429,21.3543 193.8439,21.9543 194.3049,22.1163 C194.6989,22.2543 195.1359,22.2773 195.5049,22.2773 C195.7589,22.2773 195.8979,22.3243 195.8979,22.4623 C195.8979,22.6473 195.6899,22.6933 195.3679,22.6933 C193.8659,22.6933 192.9429,22.6243 192.5029,22.6243 C192.2959,22.6243 191.2109,22.6933 190.0099,22.6933 C189.7089,22.6933 189.5019,22.6693 189.5019,22.4623 C189.5019,22.3243 189.6409,22.2773 189.8709,22.2773 C190.1709,22.2773 190.5859,22.2543 190.9109,22.1623 C191.5109,21.9773 191.6019,21.3073 191.6259,19.2983 L191.6259,19.2983 L191.8339,5.6273 C191.8339,5.1653 191.9049,4.8413 192.1339,4.8413 Z M5.5674,15.3846 C5.5864,15.5496 5.5814,15.7246 5.5764,15.9076 C5.5724,16.0546 5.5694,16.2026 5.5774,16.3476 L5.5774,16.3476 L5.5814,16.4226 L5.6494,16.4546 L5.7784,16.5156 C6.1724,16.6996 6.5444,16.8736 6.8094,17.2326 C7.4834,18.2716 7.6954,19.1956 7.4564,20.0596 C7.2014,21.0406 6.5784,21.9746 5.6044,22.8406 L5.6044,22.8406 L5.4854,22.9396 C5.1504,22.3176 4.7274,21.7266 4.2924,21.1536 L4.2924,21.1536 L4.2454,20.8406 C4.2154,20.6606 4.1814,20.4746 4.1454,20.2826 C3.8824,18.8626 3.5834,17.2526 4.5714,16.1876 C4.8114,15.8606 5.1464,15.6496 5.4694,15.4456 C5.5024,15.4256 5.5354,15.4046 5.5674,15.3846 Z M60.2009,5.0498 C60.3159,5.0498 60.3399,5.1418 60.3399,5.2578 C60.3399,5.4188 60.2239,5.6968 60.1549,6.7588 C60.1309,6.9898 60.0859,8.0058 60.0389,8.2818 C60.0159,8.3978 59.9699,8.5358 59.8079,8.5358 C59.6459,8.5358 59.5999,8.4208 59.5999,8.2128 C59.5999,8.0518 59.5769,7.6588 59.4609,7.3818 C59.2999,6.9668 59.0689,6.6888 57.9149,6.5508 C57.5219,6.5038 55.0969,6.4578 54.6359,6.4578 C54.5189,6.4578 54.4739,6.5278 54.4739,6.6888 L54.4739,6.6888 L54.4739,12.5318 C54.4739,12.6928 54.4969,12.7858 54.6359,12.7858 C55.1429,12.7858 57.7989,12.7858 58.3299,12.7398 C58.8849,12.6928 59.2309,12.6238 59.4389,12.3928 C59.5999,12.2088 59.6929,12.0928 59.8079,12.0928 C59.9009,12.0928 59.9699,12.1388 59.9699,12.2778 C59.9699,12.4168 59.8539,12.7858 59.7849,13.9638 C59.7389,14.4258 59.6929,15.3498 59.6929,15.5108 C59.6929,15.6958 59.6929,15.9498 59.4849,15.9498 C59.3229,15.9498 59.2769,15.8568 59.2769,15.7418 C59.2549,15.5108 59.2549,15.2108 59.1849,14.9098 C59.0689,14.4488 58.7459,14.1028 57.8919,14.0098 C57.4519,13.9638 55.1659,13.9408 54.6119,13.9408 C54.4969,13.9408 54.4739,14.0328 54.4739,14.1718 L54.4739,14.1718 L54.4736013,16.1698385 C54.4709133,17.0576667 54.4515,18.9504667 54.4739,19.5758 C54.5189,21.1688 54.8889,21.5148 57.2449,21.5148 C57.8449,21.5148 58.8149,21.5148 59.4159,21.2378 C60.0159,20.9608 60.2929,20.4758 60.4549,19.5298 C60.5009,19.2748 60.5469,19.1828 60.7089,19.1828 C60.8929,19.1828 60.8929,19.3678 60.8929,19.5988 C60.8929,20.1298 60.7089,21.6998 60.5929,22.1618 C60.4309,22.7628 60.2239,22.7628 59.3459,22.7628 L58.9796363,22.7622808 C55.7486347,22.7530487 54.2632214,22.6238 52.9489,22.6238 C52.4179,22.6238 50.9639,22.6928 50.0399,22.6928 C49.7399,22.6928 49.5779,22.6238 49.5779,22.4628 C49.5779,22.3468 49.6699,22.2768 49.9469,22.2768 C50.2939,22.2768 50.5709,22.2308 50.7789,22.1848 C51.2409,22.0928 51.3559,21.5848 51.4479,20.9148 C51.5502529,20.0589176 51.5622945,18.5381564 51.5637111,16.7324013 L51.5634514,10.0554253 C51.5619134,8.28934863 51.5551021,7.70604585 51.524938,7.16880768 L51.5169,7.0348 C51.4709,6.2498 51.2869,5.8808 50.5249,5.7198 C50.3399,5.6728 49.9469,5.6498 49.6229,5.6498 C49.3699,5.6498 49.2309,5.6028 49.2309,5.4418 C49.2309,5.2798 49.3929,5.2338 49.7399,5.2338 C50.9639,5.2338 52.4179,5.3038 53.0649,5.3038 C53.8039,5.3038 58.3989,5.3038 58.8379,5.2798 C59.2769,5.2338 59.6459,5.1878 59.8309,5.1418 C59.9469,5.1188 60.0859,5.0498 60.2009,5.0498 Z M88.7745,5.0498 C88.8895,5.0498 88.9125,5.1418 88.9125,5.2578 C88.9125,5.4188 88.7975,5.6968 88.7285,6.7588 C88.7055,6.9898 88.6585,8.0058 88.6125,8.2818 C88.5895,8.3978 88.5435,8.5358 88.3815,8.5358 C88.2195,8.5358 88.1735,8.4208 88.1735,8.2128 C88.1735,8.0518 88.1505,7.6588 88.0355,7.3818 C87.8735,6.9668 87.6425,6.6888 86.4885,6.5508 C86.0955,6.5038 83.6705,6.4578 83.2085,6.4578 C83.0935,6.4578 83.0475,6.5278 83.0475,6.6888 L83.0475,6.6888 L83.0475,12.5318 C83.0475,12.6928 83.0695,12.7858 83.2085,12.7858 C83.7165,12.7858 86.3725,12.7858 86.9035,12.7398 C87.4575,12.6928 87.8045,12.6238 88.0125,12.3928 C88.1735,12.2088 88.2665,12.0928 88.3815,12.0928 C88.4745,12.0928 88.5435,12.1388 88.5435,12.2778 C88.5435,12.4168 88.4275,12.7858 88.3585,13.9638 C88.3125,14.4258 88.2665,15.3498 88.2665,15.5108 C88.2665,15.6958 88.2665,15.9498 88.0585,15.9498 C87.8965,15.9498 87.8505,15.8568 87.8505,15.7418 C87.8275,15.5108 87.8275,15.2108 87.7585,14.9098 C87.6425,14.4488 87.3195,14.1028 86.4645,14.0098 C86.0265,13.9638 83.7395,13.9408 83.1855,13.9408 C83.0695,13.9408 83.0475,14.0328 83.0475,14.1718 L83.0475,14.1718 L83.0475,15.9958 C83.0475,16.7808 83.0245,18.9058 83.0475,19.5758 C83.0935,21.1688 83.4625,21.5148 85.8185,21.5148 C86.4195,21.5148 87.3885,21.5148 87.9895,21.2378 C88.5895,20.9608 88.8665,20.4758 89.0285,19.5298 C89.0745,19.2748 89.1205,19.1828 89.2825,19.1828 C89.4675,19.1828 89.4675,19.3678 89.4675,19.5988 C89.4675,20.1298 89.2825,21.6998 89.1675,22.1618 C89.0055,22.7628 88.7975,22.7628 87.9195,22.7628 L87.5532364,22.7622808 C84.322236,22.7530487 82.8368571,22.6238 81.5235,22.6238 C80.9915,22.6238 79.5365,22.6928 78.6135,22.6928 C78.3125,22.6928 78.1515,22.6238 78.1515,22.4628 C78.1515,22.3468 78.2435,22.2768 78.5205,22.2768 C78.8675,22.2768 79.1445,22.2308 79.3525,22.1848 C79.8135,22.0928 79.9295,21.5848 80.0215,20.9148 C80.1229706,20.0589176 80.1349083,18.5381564 80.1363127,16.7324013 L80.1363435,10.5222434 C80.1354669,8.22262736 80.1296818,7.6618303 80.0915,7.0348 C80.0455,6.2498 79.8605,5.8808 79.0985,5.7198 C78.9135,5.6728 78.5205,5.6498 78.1975,5.6498 C77.9435,5.6498 77.8045,5.6028 77.8045,5.4418 C77.8045,5.2798 77.9665,5.2338 78.3125,5.2338 C79.5365,5.2338 80.9915,5.3038 81.6385,5.3038 C82.3775,5.3038 86.9725,5.3038 87.4125,5.2798 C87.8505,5.2338 88.2195,5.1878 88.4045,5.1418 C88.5205,5.1188 88.6585,5.0498 88.7745,5.0498 Z M70.7798,5.2341 C71.1028,5.2341 71.2648,5.2801 71.2648,5.4421 C71.2648,5.6031 71.1268,5.6501 70.8488,5.6501 C70.5948,5.6501 70.2258,5.6731 69.9478,5.7191 C69.3248,5.8351 69.1398,6.2271 69.0938,7.0351 C69.0567697,7.61734242 69.0489148,8.14247557 69.0472486,10.0557253 L69.0469975,16.6306283 C69.0494667,19.1816418 69.0828,20.5759148 69.5328,20.9611 C69.9248,21.3071 70.5258,21.4691 72.3268,21.4691 C73.5508,21.4691 74.4508,21.4451 75.0288,20.8231 C75.3058,20.5221 75.5828,19.8751 75.6288,19.4371 C75.6528,19.2291 75.6988,19.0901 75.8838,19.0901 C76.0448,19.0901 76.0678,19.2061 76.0678,19.4831 C76.0678,19.7371 75.9058,21.4691 75.7218,22.1391 C75.5828,22.6471 75.4678,22.7621 74.2658,22.7621 C70.9408,22.7621 69.4168,22.6241 67.5468,22.6241 C67.0148,22.6241 65.5608,22.6931 64.6368,22.6931 C64.3368,22.6931 64.1748,22.6241 64.1748,22.4621 C64.1748,22.3471 64.2668,22.2771 64.5448,22.2771 C64.8908,22.2771 65.1678,22.2311 65.3758,22.1851 C65.8378,22.0931 65.9528,21.5851 66.0448,20.9141 C66.1471529,20.0591 66.1591945,18.537664 66.1606111,16.7324249 L66.160361,10.0557253 C66.1588557,8.28964863 66.1521893,7.70634585 66.122667,7.16910768 L66.1148,7.0351 C66.0678,6.2501 65.8838,5.8811 65.1218,5.7191 C64.9368,5.6731 64.6598,5.6501 64.3598,5.6501 C64.1058,5.6501 63.9668,5.6031 63.9668,5.4421 C63.9668,5.2801 64.1288,5.2341 64.4748,5.2341 C65.5608,5.2341 67.0148,5.3041 67.6388,5.3041 C68.1938,5.3041 69.8788,5.2341 70.7798,5.2341 Z M249.5926,5.2341 C249.8936,5.2341 250.0786,5.2801 250.0786,5.4191 C250.0786,5.6031 249.9396,5.6501 249.7076,5.6501 C249.4776,5.6501 249.2926,5.6731 249.0166,5.7191 C248.3916,5.8351 248.2086,6.2281 248.1616,7.0351 C248.126752,7.59494848 248.118303,8.10199624 248.116255,9.84104373 L248.116111,17.1408366 C248.118496,18.8539858 248.132012,20.2353353 248.2086,21.0531 C248.2766,21.6771 248.4376,22.0931 249.1316,22.1851 C249.4556,22.2311 249.9636,22.2771 250.3106,22.2771 C250.5626,22.2771 250.6796,22.3471 250.6796,22.4621 C250.6796,22.6241 250.4936,22.6931 250.2406,22.6931 C248.7166,22.6931 247.2606,22.6241 246.6376,22.6241 C246.1056,22.6241 244.6526,22.6931 243.7286,22.6931 C243.6466,22.6931 243.5756,22.6871 243.5136,22.6761 C243.4376,22.6881 243.3416,22.6931 243.2196,22.6931 L243.2196,22.6931 L240.737944,22.6923813 C240.305663,22.690225 239.9811,22.6816 239.6166,22.6471 C238.3686,22.5321 237.7466,22.0231 236.7526,21.1461 C235.7366,20.2451 231.1866,14.9101 230.7026,14.2411 L230.7026,14.2411 L230.4486,13.8941 L230.3316,13.8941 L230.33199,17.0897072 C230.333811,18.7383076 230.344129,20.1203353 230.4026,20.9381 C230.4486,21.5851 230.6566,22.0931 231.2326,22.1851 C231.5576,22.2311 232.0656,22.2771 232.3636,22.2771 C232.5496,22.2771 232.6666,22.3471 232.6666,22.4621 C232.6666,22.6241 232.4806,22.6931 232.2266,22.6931 C230.9326,22.6931 229.4776,22.6241 228.9006,22.6241 C228.3706,22.6241 226.9146,22.6931 225.9916,22.6931 C225.6916,22.6931 225.5306,22.6241 225.5306,22.4621 C225.5306,22.3471 225.6206,22.2771 225.8996,22.2771 C226.2456,22.2771 226.5216,22.2311 226.7296,22.1851 C227.1936,22.0931 227.3086,21.5851 227.3986,20.9141 C227.501835,20.0591 227.513981,18.537664 227.515409,16.7324249 L227.515324,10.2827273 C227.514172,8.33833717 227.508219,7.72873077 227.477467,7.16910768 L227.4696,7.0351 C227.4236,6.2501 227.2376,5.8811 226.4756,5.7191 C226.2906,5.6731 225.8996,5.6501 225.5746,5.6501 C225.3206,5.6501 225.1836,5.6031 225.1836,5.4421 C225.1836,5.2801 225.3446,5.2341 225.6916,5.2341 C226.9146,5.2341 228.3706,5.3041 228.9246,5.3041 C229.4776,5.3041 230.9326,5.2341 231.7186,5.2341 C232.0416,5.2341 232.2026,5.2801 232.2026,5.4421 C232.2026,5.6031 232.0656,5.6501 231.8806,5.6501 C231.6486,5.6501 231.5116,5.6731 231.2326,5.7191 C230.6106,5.8351 230.4246,6.2281 230.3786,7.0351 C230.342994,7.59494848 230.334362,8.10199624 230.33227,9.84104373 L230.3316,12.9481 L230.4486,12.9481 C231.2326,12.0931 234.6056,8.6521 235.2746,7.8671 C235.9216,7.1041 236.4296,6.5271 236.4296,6.1351 C236.4296,5.8811 236.3366,5.7191 236.1076,5.6731 C235.8976,5.6271 235.8066,5.5811 235.8066,5.4421 C235.8066,5.2801 235.9216,5.2341 236.1756,5.2341 C236.6596,5.2341 237.9316,5.3041 238.5546,5.3041 C239.2696,5.3041 240.5396,5.2341 241.2556,5.2341 C241.4876,5.2341 241.6486,5.2801 241.6486,5.4421 C241.6486,5.6031 241.5336,5.6501 241.3016,5.6501 C240.9796,5.6501 240.4006,5.7421 239.9636,5.9041 C239.2476,6.1811 238.4616,6.6661 237.4676,7.6361 C236.7526,8.3291 233.2646,11.7921 232.4806,12.6241 C233.3116,13.7101 237.8386,18.5821 238.7376,19.4371 C239.7556,20.4061 240.7936,21.4451 242.0416,21.9311 C242.7336,22.2081 243.1966,22.2771 243.4726,22.2771 C243.4956,22.2771 243.5186,22.2781 243.5396,22.2801 C243.5696,22.2781 243.6016,22.2771 243.6366,22.2771 C243.9826,22.2771 244.2596,22.2311 244.4666,22.1851 C244.9286,22.0931 245.0676,21.7001 245.1366,21.0311 C245.239711,20.1679889 245.251168,18.6309025 245.252441,16.7267598 L245.252324,10.2827273 C245.251172,8.33833717 245.245219,7.72873077 245.214467,7.16910768 L245.2066,7.0351 C245.1606,6.2501 244.9286,5.8581 244.4206,5.7421 C244.1666,5.6731 243.8656,5.6501 243.5896,5.6501 C243.3586,5.6501 243.2196,5.6031 243.2196,5.4191 C243.2196,5.2801 243.4046,5.2341 243.7756,5.2341 C244.6526,5.2341 246.1056,5.3041 246.7766,5.3041 C247.3536,5.3041 248.7166,5.2341 249.5926,5.2341 Z M172.6338,4.7261 C172.8418,4.7261 172.9808,4.9571 173.0498,5.4421 L173.0498,5.4421 L175.1518,19.7141 C175.3598,21.1691 175.5898,21.8381 176.2828,22.0461 C176.9518,22.2541 177.4158,22.2771 177.7158,22.2771 C177.9238,22.2771 178.0848,22.3011 178.0848,22.4391 C178.0848,22.6241 177.8068,22.6931 177.4838,22.6931 C176.9078,22.6931 173.7208,22.6241 172.7958,22.5541 C172.2648,22.5081 172.1258,22.4391 172.1258,22.3011 C172.1258,22.1851 172.2188,22.1161 172.3798,22.0461 C172.5188,22.0001 172.5878,21.7001 172.4948,21.0531 L172.4948,21.0531 L171.1098,10.8921 L171.0178,10.8921 L165.9838,21.3761 C165.4518,22.4621 165.3368,22.6701 165.1288,22.6701 C164.9218,22.6701 164.6898,22.2081 164.3208,21.5151 C163.7668,20.4531 161.9418,16.9191 161.6658,16.2731 C161.4568,15.7881 160.0718,12.8781 159.2628,11.1461 L159.2628,11.1461 L159.1708,11.1461 L157.9688,20.3371 C157.9248,20.7531 157.9008,21.0531 157.9008,21.4231 C157.9008,21.8621 158.2008,22.0691 158.5938,22.1621 C159.0088,22.2541 159.3318,22.2771 159.5638,22.2771 C159.7488,22.2771 159.9098,22.3241 159.9098,22.4391 C159.9098,22.6471 159.7028,22.6931 159.3558,22.6931 C158.3858,22.6931 157.3458,22.6241 156.9308,22.6241 C156.4918,22.6241 155.3828,22.6931 154.6448,22.6931 C154.5618,22.6931 154.4858,22.6871 154.4208,22.6701 C154.2598,22.6871 154.0328,22.6931 153.7178,22.6931 L152.945206,22.6923812 C152.03405,22.690225 150.73955,22.6816 149.3528,22.6471 C148.9378,22.6241 148.6618,22.6241 148.6618,22.4621 C148.6618,22.3241 148.7528,22.2771 148.9838,22.2541 C149.1458,22.2081 149.3068,22.0001 149.1918,21.7231 L149.1918,21.7231 L147.3448,16.8271 C147.2988,16.7121 147.2288,16.6651 147.1138,16.6651 L147.1138,16.6651 L141.9628,16.6651 C141.8478,16.6651 141.8018,16.7121 141.7558,16.8501 L141.7558,16.8501 L140.5088,20.1531 C140.2778,20.7301 140.1618,21.2841 140.1618,21.5611 C140.1618,21.9771 140.3708,22.2771 141.0858,22.2771 L141.0858,22.2771 L141.4318,22.2771 C141.7088,22.2771 141.7788,22.3241 141.7788,22.4621 C141.7788,22.6471 141.6408,22.6931 141.3868,22.6931 C140.8778,22.6931 140.2508,22.6601 139.6758,22.6401 C139.6758,22.6401 139.1098,22.6501 138.4498,22.6711 C137.9993,22.66175 136.513458,22.6690175 136.077841,22.6714081 L135.9568,22.6721 C135.8508,22.6651 135.7448,22.6571 135.6358,22.6471 C134.3878,22.5321 133.7638,22.0231 132.7718,21.1461 C131.7548,20.2451 127.2058,14.9101 126.7208,14.2411 L126.7208,14.2411 L126.4668,13.8941 L126.3508,13.8941 L126.351179,17.0897072 C126.352949,18.7383076 126.362976,20.1203353 126.4198,20.9381 C126.4668,21.5851 126.6748,22.0931 127.2518,22.1851 C127.5748,22.2311 128.0828,22.2771 128.3838,22.2771 C128.5688,22.2771 128.6838,22.3471 128.6838,22.4621 C128.6838,22.6241 128.4988,22.6931 128.2448,22.6931 C126.9518,22.6931 125.4968,22.6241 124.9198,22.6241 C124.3878,22.6241 122.9328,22.6931 122.0098,22.6931 C121.7088,22.6931 121.5478,22.6241 121.5478,22.4621 C121.5478,22.3471 121.6398,22.2771 121.9178,22.2771 C122.2638,22.2771 122.5408,22.2311 122.7488,22.1851 C123.2108,22.0931 123.3258,21.5851 123.4188,20.9141 C123.520271,20.0591 123.532208,18.537664 123.533613,16.7324249 L123.533351,10.0557253 C123.531813,8.28964863 123.525002,7.70634585 123.494838,7.16910768 L123.4868,7.0351 C123.4418,6.2501 123.2568,5.8811 122.4948,5.7191 C122.3098,5.6731 121.9178,5.6501 121.5938,5.6501 C121.3398,5.6501 121.2008,5.6031 121.2008,5.4421 C121.2008,5.2801 121.3628,5.2341 121.7088,5.2341 C122.9328,5.2341 124.3878,5.3041 124.9428,5.3041 C125.4968,5.3041 126.9518,5.2341 127.7368,5.2341 C128.0598,5.2341 128.2218,5.2801 128.2218,5.4421 C128.2218,5.6031 128.0828,5.6501 127.8978,5.6501 C127.6678,5.6501 127.5288,5.6731 127.2518,5.7191 C126.6278,5.8351 126.4438,6.2281 126.3978,7.0351 C126.36077,7.61734242 126.352915,8.14247557 126.351249,10.0557253 L126.3508,12.9481 L126.4668,12.9481 C127.2518,12.0931 130.6238,8.6521 131.2938,7.8671 C131.9398,7.1041 132.4478,6.5271 132.4478,6.1351 C132.4478,5.8811 132.3558,5.7191 132.1248,5.6731 C131.9168,5.6271 131.8248,5.5811 131.8248,5.4421 C131.8248,5.2801 131.9398,5.2341 132.1948,5.2341 C132.6788,5.2341 133.9488,5.3041 134.5728,5.3041 C135.2888,5.3041 136.5588,5.2341 137.2748,5.2341 C137.5058,5.2341 137.6678,5.2801 137.6678,5.4421 C137.6678,5.6031 137.5518,5.6501 137.3208,5.6501 C136.9978,5.6501 136.4208,5.7421 135.9808,5.9041 C135.2648,6.1811 134.4798,6.6661 133.4878,7.6361 C132.7718,8.3291 129.2838,11.7921 128.4988,12.6241 C129.3298,13.7101 133.8568,18.5821 134.7578,19.4371 C135.6888,20.3261 136.6408,21.2721 137.7538,21.7981 C138.1708,21.4311 138.4458,20.8621 138.7298,20.1531 L138.7298,20.1531 L144.5268,5.6501 C144.8038,4.9801 144.9428,4.7261 145.1738,4.7261 C145.3818,4.7261 145.5208,4.9341 145.7508,5.4651 C146.3048,6.7351 149.9998,16.1571 151.4758,19.6681 C152.3548,21.7461 153.0248,22.0691 153.5098,22.1851 C153.8568,22.2541 154.2018,22.2771 154.4798,22.2771 C154.5028,22.2771 154.5248,22.2771 154.5468,22.2781 L154.57205,22.2776 L154.57205,22.2776 L154.5988,22.2771 C154.7818,22.2771 154.9448,22.2771 155.2918,22.2081 C155.9368,22.0691 156.1228,21.1691 156.2378,20.3841 L156.2378,20.3841 L158.5248,5.3271 C158.5938,4.9341 158.7328,4.7261 158.9168,4.7261 C159.1018,4.7261 159.2408,4.8411 159.5398,5.4421 L159.5398,5.4421 L165.8448,18.4671 L172.1258,5.2801 C172.2878,4.9111 172.4268,4.7261 172.6338,4.7261 Z M186.1067,5.2341 C186.4077,5.2341 186.5907,5.2801 186.5907,5.4191 C186.5907,5.6031 186.4537,5.6501 186.2217,5.6501 C185.9907,5.6501 185.8067,5.6731 185.5287,5.7191 C184.9057,5.8351 184.7217,6.2281 184.6757,7.0351 C184.637882,7.61734242 184.62986,8.14247557 184.628158,10.0557253 L184.628217,17.1408366 C184.630627,18.8539858 184.644288,20.2353353 184.7217,21.0531 C184.7907,21.6771 184.9517,22.0931 185.6457,22.1851 C185.9677,22.2311 186.4757,22.2771 186.8227,22.2771 C187.0767,22.2771 187.1917,22.3471 187.1917,22.4621 C187.1917,22.6241 187.0077,22.6931 186.7537,22.6931 C185.2287,22.6931 183.7747,22.6241 183.1497,22.6241 C182.6197,22.6241 181.1647,22.6931 180.2407,22.6931 C179.9407,22.6931 179.7797,22.6241 179.7797,22.4621 C179.7797,22.3471 179.8707,22.2771 180.1487,22.2771 C180.4947,22.2771 180.7717,22.2311 180.9787,22.1851 C181.4427,22.0931 181.5797,21.7001 181.6497,21.0311 C181.751922,20.1679889 181.76328,18.6309025 181.764542,16.7267598 L181.764424,10.2827273 C181.763272,8.33833717 181.757319,7.72873077 181.726567,7.16910768 L181.7187,7.0351 C181.6727,6.2501 181.4427,5.8581 180.9347,5.7421 C180.6807,5.6731 180.3797,5.6501 180.1017,5.6501 C179.8707,5.6501 179.7327,5.6031 179.7327,5.4191 C179.7327,5.2801 179.9187,5.2341 180.2877,5.2341 C181.1647,5.2341 182.6197,5.3041 183.2887,5.3041 C183.8677,5.3041 185.2287,5.2341 186.1067,5.2341 Z M45.4847,5.2341 C45.8077,5.2341 45.9697,5.2801 45.9697,5.4421 C45.9697,5.6031 45.8317,5.6501 45.5537,5.6501 C45.3697,5.6501 45.1617,5.6731 44.8837,5.7191 C44.2607,5.8351 44.0757,6.2281 44.0307,7.0351 C43.9936697,7.61734242 43.9858148,8.14247557 43.9841486,10.0557253 L43.9838873,16.7324639 C43.9852917,18.5379962 43.9972294,20.0619235 44.0987,20.9381 C44.1687,21.5851 44.3067,22.0931 44.9997,22.1851 C45.3237,22.2311 45.8317,22.2771 46.1777,22.2771 C46.4317,22.2771 46.5467,22.3471 46.5467,22.4621 C46.5467,22.6241 46.3627,22.6931 46.0847,22.6931 C44.5847,22.6931 43.1297,22.6241 42.4827,22.6241 C41.9507,22.6241 40.4967,22.6931 39.5957,22.6931 C39.2727,22.6931 39.1117,22.6241 39.1117,22.4621 C39.1117,22.3471 39.2037,22.2771 39.4807,22.2771 C39.8267,22.2771 40.1037,22.2311 40.3117,22.1851 C40.7737,22.0931 40.8897,21.5851 40.9817,20.9141 C41.0840529,20.0591 41.0960945,18.537664 41.0975111,16.7324249 L41.0977,13.9631 C41.0977,13.8711 41.0277,13.8251 40.9587,13.8251 L40.9587,13.8251 L32.1367,13.8251 C32.0677,13.8251 31.9987,13.8481 31.9987,13.9631 L31.9987,13.9631 L31.9988873,16.7324639 C32.0002917,18.5379962 32.0122294,20.0619235 32.1137,20.9381 C32.1827,21.5851 32.3207,22.0931 33.0147,22.1851 C33.3377,22.2311 33.8457,22.2771 34.1927,22.2771 C34.4467,22.2771 34.5617,22.3471 34.5617,22.4621 C34.5617,22.6241 34.3767,22.6931 34.0997,22.6931 C32.5987,22.6931 31.1437,22.6241 30.4967,22.6241 C29.9657,22.6241 28.5107,22.6931 27.5867,22.6931 C27.2867,22.6931 27.1257,22.6241 27.1257,22.4621 C27.1257,22.3471 27.2177,22.2771 27.4947,22.2771 C27.8417,22.2771 28.1187,22.2311 28.3267,22.1851 C28.7877,22.0931 28.9037,21.5851 28.9957,20.9141 C29.0980529,20.0591 29.1100945,18.537664 29.1115111,16.7324249 L29.1114175,10.2827273 C29.1102404,8.33833717 29.104159,7.72873077 29.072738,7.16910768 L29.0647,7.0351 C29.0187,6.2501 28.8337,5.8811 28.0717,5.7191 C27.8877,5.6731 27.4947,5.6501 27.1707,5.6501 C26.9177,5.6501 26.7787,5.6031 26.7787,5.4421 C26.7787,5.2801 26.9407,5.2341 27.2647,5.2341 C28.5107,5.2341 29.9657,5.3041 30.5897,5.3041 C31.1437,5.3041 32.5987,5.2341 33.4987,5.2341 C33.8227,5.2341 33.9847,5.2801 33.9847,5.4421 C33.9847,5.6031 33.8457,5.6501 33.5687,5.6501 C33.3837,5.6501 33.1757,5.6731 32.8997,5.7191 C32.2747,5.8351 32.0907,6.2281 32.0447,7.0351 C32.0084576,7.61734242 32.0007698,8.14247557 31.999139,10.0557253 L31.9987,12.4171 C31.9987,12.5321 32.0677,12.5781 32.1367,12.5781 L32.1367,12.5781 L40.9587,12.5781 C41.0277,12.5781 41.0977,12.5321 41.0977,12.4171 L41.0977,12.4171 L41.0974175,10.2827273 C41.0962404,8.33833717 41.090159,7.72873077 41.058738,7.16910768 L41.0507,7.0351 C41.0047,6.2501 40.8197,5.8811 40.0577,5.7191 C39.8727,5.6731 39.4807,5.6501 39.1567,5.6501 C38.9027,5.6501 38.7637,5.6031 38.7637,5.4421 C38.7637,5.2801 38.9267,5.2341 39.2497,5.2341 C40.4967,5.2341 41.9507,5.3041 42.5757,5.3041 C43.1297,5.3041 44.5847,5.2341 45.4847,5.2341 Z M6.3305,11.995 C6.4635,12.164 6.6005,12.331 6.7355,12.495 C7.5325,13.463 8.3535,14.463 8.2185,15.804 L8.2185,15.804 L8.2181243,15.8195884 C8.21485556,15.9621644 8.1937,17.0415333 8.2945,17.343 C9.2115,16.734 10.1325,15.861 10.8355,14.932 C11.3395,14.274 11.6535,13.543 11.9085,12.84 C11.9265,12.876 11.9435,12.92 11.9625,12.971 C11.9835,13.028 12.0045,13.084 12.0305,13.134 C12.2905,14.942 11.7865,16.761 10.4505,18.848 C9.9115,19.556 9.1795,20.283 8.3215,20.964 C8.5865,18.936 8.1475,17.33 7.0315,16.277 C6.9765,16.233 6.8215,16.115 6.7165,16.057 L6.7165,16.057 L6.4245,15.899 C6.4195,15.561 6.4175,15.217 6.4165,14.87 C6.4125,13.915 6.4085,12.932 6.3305,11.995 Z M5.1676,9.5208 C5.4746,11.2258 5.6136,12.8698 5.5786,14.4108 C4.2156,15.1358 2.8516,16.5138 3.0386,18.2388 C3.0386,18.5708 3.0836,18.8888 3.1276,19.1958 L3.1276,19.1958 L3.1576,19.4138 C3.1576,19.4138 3.1856,19.5518 3.2156,19.7008 C2.4026,18.8718 1.9646,17.8338 1.7026,16.7328 C1.7016,16.7218 1.7006,16.7118 1.6976,16.6998 C1.6006,16.1398 1.6226,15.5628 1.6226,15.5628 C1.6226,13.9668 2.1116,12.7028 3.1176,11.6968 C3.6316,11.1828 4.1466,10.6258 4.6436,10.0868 C4.8206,9.8948 4.9956,9.7058 5.1676,9.5208 Z M12.5208,10.1014 C13.0978,10.4834 14.1058,11.3204 14.1308,12.5114 C14.1848,13.0644 14.1378,13.6314 14.0938,14.1804 C14.0818,14.3204 14.0708,14.4594 14.0618,14.5944 L14.0618,14.5944 L14.0518,14.7294 L14.0408,14.9624 C14.1438,14.8994 14.3478,14.7294 14.3478,14.7294 L14.3478,14.7294 L14.3828,14.7004 C15.3318,13.9194 16.0328,12.9824 16.5148,11.8484 L16.5148,11.8484 L16.6358,11.5884 C16.6478,13.7694 16.0778,15.7844 14.8488,17.4564 C14.0728,18.4404 13.3708,18.8334 13.3708,18.8334 C13.4978,18.0374 13.6138,16.4754 12.8338,15.3914 L12.8338,15.3914 L12.8468,15.2894 C12.9618,14.4124 13.1048,13.3204 12.6698,12.4744 L12.6698,12.4744 L12.2398,11.8304 Z M10.1035,5.3072 C11.4505,6.4502 11.6685,8.2072 11.7065,9.6082 C11.4995,12.3582 10.6615,14.2912 9.0775,15.6632 C9.1325,14.1112 8.1755,12.9362 7.2485,11.7972 C7.0765,11.5862 6.9055,11.3762 6.7485,11.1742 C5.8355,9.7142 5.4095,7.4372 6.3425,5.9332 C6.4005,5.8752 6.4545,5.8062 6.5095,5.7362 C6.6045,5.6142 6.6955,5.4982 6.8115,5.4422 C7.1615,5.7982 7.6595,5.9792 8.2935,5.9792 C8.5015,5.9792 8.7225,5.9612 8.9765,5.9222 C9.3925,5.8352 9.7805,5.6232 10.1035,5.3072 Z M144.5958,9.4601 C144.5268,9.4601 144.4808,9.5751 144.4578,9.6681 L144.4578,9.6681 L142.3328,15.3501 C142.3098,15.4411 142.3328,15.5111 142.4248,15.5111 L142.4248,15.5111 L146.6738,15.5111 C146.7908,15.5111 146.8128,15.4411 146.7908,15.3721 L146.7908,15.3721 L144.7118,9.6681 C144.6888,9.5751 144.6658,9.4601 144.5958,9.4601 Z M4.8551,2.9551 C5.0131,2.9551 5.1781,2.9831 5.3441,3.0371 C5.6741,3.1471 6.0141,3.4041 6.3291,3.7811 C6.3231,3.8401 6.3141,3.9011 6.3061,3.9621 C6.2741,4.1941 6.2381,4.4551 6.3291,4.6941 C5.3831,5.5971 4.9371,6.8491 5.0041,8.4151 C4.5691,9.0451 3.9881,9.6221 3.4261,10.1811 C2.4801,11.1211 1.5021,12.0941 1.1691,13.3581 L1.1691,13.3581 L0.9841,14.0341 L0.9241,14.2531 C-0.5549,11.1051 -0.2129,6.6491 1.6271,3.7761 C1.7621,3.5831 1.9141,3.3581 2.1091,3.2101 L2.1091,3.2101 L2.0781,3.3751 L1.9421,4.9871 L1.9381,5.0311 C1.9381,5.0311 1.9201,5.4651 1.9381,5.5041 C1.9381,5.5041 2.0231,5.3351 2.0941,5.2651 L2.0941,5.2651 L2.2031,5.1561 C2.4121,4.9471 2.6141,4.6981 2.8271,4.4341 C3.4141,3.7071 4.0221,2.9551 4.8551,2.9551 Z M11.7543,2.9618 C11.8973,2.9618 12.0443,2.9808 12.1743,3.0118 C12.9353,3.3158 13.5593,4.0968 14.1103,4.7848 C14.1973,4.8938 14.2823,4.9998 14.3653,5.1008 L14.3653,5.1008 L14.4383,5.1898 L14.6433,5.4118 C14.6613,5.3408 14.6593,5.0408 14.6593,5.0408 L14.6593,5.0408 L14.6563,4.9718 C14.6393,4.4378 14.6093,3.8318 14.5203,3.2478 L14.5203,3.2478 L14.4863,3.0708 C15.4343,4.0368 15.8053,5.3098 16.2163,6.5208 C16.5683,8.1688 16.4713,9.8938 15.8893,11.4098 C15.4973,12.3508 14.9993,12.8048 14.9993,12.8048 C15.0773,11.1278 13.7113,9.8778 12.6233,9.0578 C12.4863,8.6928 12.4213,8.2998 12.3533,7.8838 C12.2543,7.2778 12.1513,6.6508 11.8083,6.1318 C11.4783,5.4708 11.0213,4.9008 10.5153,4.5148 C10.5883,4.2158 10.5313,3.8618 10.4873,3.5958 L10.4873,3.5958 L10.4803,3.5518 C10.8363,3.1658 11.2753,2.9618 11.7543,2.9618 Z M8.3608,3.1498 C8.8898,3.1498 9.3938,3.4058 9.6818,3.8188 C9.7558,4.0738 9.7558,4.4348 9.5868,4.6428 C9.2988,4.9848 8.8858,5.1508 8.3218,5.1508 C8.1498,5.1508 7.9598,5.1348 7.7838,5.1088 C7.4898,4.9978 7.1528,4.7048 7.1098,4.3168 C7.0538,3.9458 7.2418,3.5918 7.6208,3.3468 C7.8368,3.2178 8.0928,3.1498 8.3608,3.1498 Z M5.332,0.5055 C7.343,-0.2025 9.905,-0.2025 11.826,0.7345 C12.535,1.1475 13.335,1.8325 13.633,2.6325 C13.693,2.8565 13.807,3.0615 13.833,3.2965 L13.833,3.2965 L13.653,3.0205 C13.06,2.5245 12.48,2.1485 11.748,2.1485 C11.594,2.1485 11.437,2.1655 11.285,2.1985 C10.797,2.2835 10.394,2.5645 10.003,2.8375 L10.003,2.8375 L9.916,2.8975 C9.433,2.5335 8.891,2.3415 8.344,2.3415 C8.163,2.3415 7.981,2.3635 7.79,2.4085 C7.425,2.5305 7.046,2.6765 6.734,2.9995 C6.224,2.4355 5.576,2.1495 4.805,2.1495 L4.805,2.1495 L4.717,2.1505 C3.992,2.1705 3.465,2.6115 2.959,3.0505 C2.959,3.0505 2.858,3.1475 2.796,3.2185 C3.009,1.9915 4.2,0.8985 5.332,0.5055 Z" id="Combined-Shape" fill="#000000"></path>
    </g>
</svg>