<?xml version="1.0" encoding="UTF-8"?>
<svg width="251px" height="28px" viewBox="0 0 251 28" version="1.1" xmlns="http://www.w3.org/2000/svg" xmlns:xlink="http://www.w3.org/1999/xlink">
    <!-- Generator: Sketch 60.1 (88133) - https://sketch.com -->
    <title>logo / men</title>
    <desc>Created with Sketch.</desc>
    <g id="logo-/-men" stroke="none" stroke-width="1" fill="none" fill-rule="evenodd">
        <path d="M98.2816737,13.765235 L90.8490001,4.9693015 L88.2262993,4.9693015 L88.2262993,22.0306985 L91.3187027,22.0306985 L91.3187027,10.2955908 L98.2435055,18.4916614 L105.206476,10.5130219 L105.206476,22.0306985 L108.298101,22.0306985 L108.298101,5.27540122 L105.690979,5.27540122 L98.2816737,13.765235 Z M75.9649585,4.9693015 L68.6927472,22.0306985 L72.0484334,22.0306985 L73.5751615,18.4500257 L81.7112205,18.4500257 L83.2371697,22.0306985 L86.5928559,22.0306985 L79.3206446,4.9693015 L75.9649585,4.9693015 Z M74.8798909,15.3890285 L77.6428016,8.9061911 L80.4064911,15.3890285 L74.8798909,15.3890285 Z M62.8350963,10.7636073 L67.7860576,4.9693015 L63.7371122,4.9693015 L60.4748992,8.78745217 C59.084486,10.4143298 57.1776337,11.4814381 55.0924035,11.8368839 L55.0924035,4.9693015 L52,4.9693015 L52,22.0306985 L55.0924035,22.0306985 L55.0924035,14.9294934 C55.8331782,14.8361985 56.559153,14.6758239 57.2625385,14.4522246 L63.7371122,22.0306985 L67.7860576,22.0306985 L60.1531957,13.0967502 C61.146348,12.4598778 62.0530376,11.6795934 62.8350963,10.7636073 L62.8350963,10.7636073 Z M111.661577,22.0306985 L114.75398,22.0306985 L114.75398,4.9693015 L111.661577,4.9693015 L111.661577,22.0306985 Z M199.195289,4.54369182 C197.870307,1.72402764 194.665736,0 191.596701,0 C186.135532,0 183.634346,3.7950197 183.244875,8.14672454 C182.984708,11.0504312 183.721588,13.9202125 185.009181,16.5170484 C186.2477,19.0121081 188.262825,21.0599692 189.336209,23.6213376 C189.571449,24.1811069 190.147088,26.1133132 189.781764,27 C190.346498,26.7933634 191.018725,26.4749272 191.754826,25.9799246 C195.929182,22.9736707 198.657819,18.1886458 199.571519,13.1730824 C200.050569,10.5454052 200.359809,7.02178879 199.195289,4.54369182 L199.195289,4.54369182 Z M191.596701,1.21360443 C194.131381,1.21360443 196.586609,2.55134502 197.792413,4.52441601 C196.662167,3.66702839 195.020934,2.8204352 193.466164,3.48352276 C193.126545,2.97464161 192.426275,2.63153235 191.595922,2.63153235 C190.766348,2.63153235 190.066078,2.97464161 189.726459,3.48352276 C188.283078,2.86746816 186.764139,3.55445771 185.648693,4.34245245 C186.632498,2.67239705 188.404593,1.21360443 191.596701,1.21360443 L191.596701,1.21360443 Z M191.37626,5.67094066 C191.551522,5.63624422 191.730679,5.61773945 191.909836,5.61773945 C192.848462,5.61773945 193.783973,6.11968131 194.077634,7.34485122 C194.101781,7.44508538 194.124371,7.54531955 194.145402,7.64632475 C194.598747,9.86921012 194.134497,12.0974927 192.870273,13.8893712 C192.485475,12.9672169 191.865436,12.1907876 191.260198,11.4344052 C190.518644,10.5076247 189.818374,9.63096122 189.598712,8.55460049 C189.577681,8.45359529 189.559765,8.35336113 189.541849,8.2515849 C189.292588,6.77197441 190.283403,5.88914273 191.37626,5.67094066 L191.37626,5.67094066 Z M190.487486,4.18439088 C190.487486,3.90990348 190.961862,3.60303273 191.595922,3.60303273 C192.23076,3.60303273 192.705137,3.90990348 192.705137,4.18439088 C192.705137,4.45964932 192.23076,4.76652008 191.595922,4.76652008 C190.961862,4.76652008 190.487486,4.45964932 190.487486,4.18439088 L190.487486,4.18439088 Z M184.73655,12.1545491 C184.445226,10.829916 184.351753,9.52610086 184.466257,8.25466903 C184.511436,7.75195614 184.607246,7.09041065 184.804319,6.37489291 C185.276358,5.86832486 187.681734,3.44805529 189.545744,4.47969616 C189.613512,4.74801531 189.773974,4.98934834 189.999089,5.1882746 C189.706206,5.36792507 189.437471,5.5853561 189.216251,5.847507 C188.931937,6.18290593 188.727075,6.57998744 188.618802,7.00482609 C188.511308,7.42503855 188.484045,7.86452681 188.308004,8.26700554 C187.944237,9.09740705 187.180873,9.68262037 186.510204,10.2632075 C185.859007,10.8276029 185.170422,11.4282369 184.73655,12.1545491 L184.73655,12.1545491 Z M186.109827,15.9811811 C185.830965,15.4190987 185.593388,14.8585585 185.382294,14.3011023 C184.992823,12.9672169 185.824734,12.1476098 187.156726,10.9941459 C187.730028,10.4983723 188.339162,9.96558913 188.802633,9.33334285 C189.030863,9.99720144 189.392292,10.5862699 189.798901,11.142184 C189.308946,11.6803644 189.111873,12.3095265 189.022295,13.0096236 C188.939727,13.6557485 188.350846,14.1145125 187.895164,14.5085099 C187.329652,14.9965732 186.644961,15.594123 186.344289,16.4152721 C186.265615,16.2710892 186.183048,16.1284482 186.109827,15.9811811 L186.109827,15.9811811 Z M189.531723,21.3252042 C189.062021,20.5348963 188.544803,19.7862242 188.034595,19.0545148 C187.856217,18.7962191 187.680955,18.5425495 187.509587,18.289651 C187.326536,18.0197898 187.19801,17.7129191 187.178537,17.3883146 C187.121674,16.4700154 187.788449,15.8901993 188.540129,15.2402193 C188.741875,15.065195 188.945179,14.8886287 189.133683,14.704352 C189.333872,15.5478611 189.715554,16.3312297 190.093341,17.0953224 C190.609001,18.1400708 191.092725,19.130076 191.114535,20.2272546 C190.647948,20.598892 190.12372,20.9635902 189.531723,21.3252042 L189.531723,21.3252042 Z M192.423938,23.8757782 C191.984615,24.2713176 191.526596,24.6437261 191.049883,24.9868353 C191.034304,24.9976298 191.018725,25.0076532 191.003146,25.0184477 C190.814642,24.0060826 190.475802,23.1702839 190.469571,23.1556342 C190.328582,22.8202353 190.171235,22.4948598 190.006099,22.1764236 C190.953294,21.6012337 191.750932,21.0152493 192.413812,20.406134 C192.541559,21.2997601 192.652169,22.6614027 192.423938,23.8757782 L192.423938,23.8757782 Z M192.018888,19.4068765 C191.841289,18.4238106 191.401965,17.5348107 190.974326,16.6689417 C190.449318,15.6064595 189.953131,14.6018048 189.971047,13.5038552 C189.972605,13.4005369 189.975721,13.2979896 189.981173,13.1954423 C190.006099,12.705066 190.15332,12.2779142 190.408813,11.9340339 C190.436076,11.9687304 190.464118,12.0034268 190.491381,12.0381233 C191.250071,12.9864927 191.966699,13.8832029 192.197266,15.0127649 L192.39356,15.9726998 L193.047093,15.2371352 C193.525364,14.6997259 193.929635,14.1145125 194.259128,13.4961448 C194.337022,13.7999315 194.431274,14.1098863 194.534095,14.4244674 C194.535653,14.4491404 194.536432,14.4691873 194.536432,14.4691873 C194.534874,15.4807813 194.037908,16.6018619 193.621953,17.3636416 C193.341533,17.8771489 193.003472,18.3590439 192.617116,18.7969901 C192.428612,19.011337 192.226087,19.2179736 192.018888,19.4068765 L192.018888,19.4068765 Z M195.781182,19.3606145 C195.754698,19.7014107 195.637857,20.0314124 195.450132,20.3190074 C194.876051,21.200297 194.233423,22.0253013 193.530037,22.7832258 C193.584563,21.4462562 193.386712,20.1802216 193.262081,19.5364098 C193.293239,19.5024844 193.326733,19.4701011 193.357112,19.4354046 C193.790204,18.9442572 194.169549,18.4022217 194.485021,17.8254897 C194.721041,17.3929408 194.977313,16.8532183 195.175165,16.2695471 C195.548278,17.3582443 195.853624,18.4361471 195.781182,19.3606145 L195.781182,19.3606145 Z M197.924054,14.8523902 C197.605467,15.9858073 197.19029,17.0783597 196.690209,18.1177109 C196.532862,17.1554629 196.179222,16.1562054 195.830256,15.1739106 C195.337964,13.789137 194.872935,12.4814667 195.029502,11.4837512 C195.175165,10.900851 195.260849,10.300217 195.285775,9.69187275 C195.564636,10.0234165 195.861414,10.3349135 196.158191,10.6417842 C197.298563,11.8222343 198.283147,12.8461648 197.924054,14.8523902 L197.924054,14.8523902 Z M198.511377,12.0697356 C198.094643,11.2416472 197.460583,10.5847279 196.867029,9.97021532 C196.087307,9.1637158 195.353543,8.39576789 195.076239,7.31940716 C195.062218,7.25232737 195.047418,7.18524759 195.031839,7.11970986 C194.771672,6.03563881 194.143065,5.35250443 193.389828,4.98549317 C193.510564,4.8320578 193.599363,4.66243075 193.645321,4.47969616 C195.713414,3.33471358 198.443609,6.43426238 198.471651,6.46587469 L198.53163,6.41498658 C198.858007,7.89691016 198.851775,9.81369581 198.511377,12.0697356 L198.511377,12.0697356 Z M130.991825,16.8416529 L120.900619,4.9693015 L118.177434,4.9693015 L118.177434,22.0306985 L121.269059,22.0306985 L121.269059,10.1575761 L131.360265,22.0306985 L134.083449,22.0306985 L134.083449,4.9693015 L130.991825,4.9693015 L130.991825,16.8416529 Z M167.49387,22.0306985 L170.586273,22.0306985 L170.586273,4.9693015 L167.49387,4.9693015 L167.49387,22.0306985 Z M160.475594,10.7643783 L165.426555,4.9693015 L161.37761,4.9693015 L158.115397,8.78745217 C156.724983,10.4143298 154.818131,11.4814381 152.732122,11.8376549 L152.732122,4.9693015 L149.640497,4.9693015 L149.640497,22.0306985 L152.732122,22.0306985 L152.732122,14.9294934 C153.472897,14.8361985 154.198871,14.6758239 154.903036,14.4522246 L161.37761,22.0306985 L165.426555,22.0306985 L157.793693,13.0967502 C158.786845,12.4598778 159.693535,11.6795934 160.475594,10.7643783 L160.475594,10.7643783 Z M142.737505,11.9471415 C140.635138,10.8622994 139.997963,10.3595865 140.109352,9.32640356 C140.17712,8.70186761 140.526865,8.14749557 141.001241,7.91387287 C142.161866,7.34330916 143.972909,8.04494831 145.086797,8.99408875 L147.104259,6.67405334 C145.186502,5.04023645 142.130709,3.94151579 139.626407,5.17285396 C138.207952,5.86986693 137.2148,7.33636987 137.034085,9.00179907 C136.682003,12.2756011 139.356114,13.6549774 141.308924,14.6611743 C143.429985,15.7552687 144.280591,16.3343138 144.145055,17.6797647 C144.047687,18.6466389 143.17605,19.1285339 142.393212,19.2565252 C141.123535,19.4654749 139.482303,18.8023873 138.574834,17.7144611 L136.189711,19.6636301 C137.577008,21.3259752 139.825816,22.354532 141.925068,22.354532 C142.25456,22.354532 142.580938,22.3290879 142.900304,22.2766577 C145.301785,21.8818893 146.998323,20.1971843 147.22188,17.9835513 C147.577857,14.4422012 144.779893,13.0003712 142.737505,11.9471415 L142.737505,11.9471415 Z" id="Fill-1" fill="#000000"></path>
    </g>
</svg>